<?xml version="1.0" encoding="utf-8"?>
<!-- Generator: Adobe Illustrator 19.2.0, SVG Export Plug-In . SVG Version: 6.00 Build 0)  -->
<svg version="1.1" id="Layer_1" xmlns="http://www.w3.org/2000/svg" xmlns:xlink="http://www.w3.org/1999/xlink" x="0px" y="0px"
	 viewBox="0 0 1319 500" style="enable-background:new 0 0 1319 500;" xml:space="preserve">
<style type="text/css">
	.st0{fill:#980043;}
	.st1{fill:#DD1C77;}
	.st2{fill:#DF65B0;}
	.st3{fill:#C994C7;}
	.st4{fill:#D4B9DA;}
	.st5{fill:#F1EEF6;}
	.st6{fill:none;}
	.st7{font-family:'ArialMT';}
	.st8{font-size:12px;}
	.st9{fill:none;stroke:#231F20;stroke-linecap:round;stroke-miterlimit:10;}
	.st10{fill:none;stroke:#231F20;stroke-linecap:round;stroke-miterlimit:10;stroke-dasharray:0,4.9775;}
</style>
<path class="st0" d="M30,241c3.8,1.5,6.2,2.4,7.2,2.5c2.2,0.2,5-0.9,7.2-1c2.2-0.1,5,0.2,7.2,0.5c2.2,0.3,5,1.3,7.2,1.5s5,0,7.2,0
	c2.2,0,5,0.3,7.2,0c2.2-0.3,5-1.6,7.2-2s5-0.7,7.2-0.5s5,1.7,7.2,2s5,0.1,7.2,0s5-0.8,7.2-1s5-0.4,7.2,0s5,2.5,7.2,2.5s5-2.6,7.2-3
	s5,0.2,7.2,0.5s5,1.2,7.2,1.5s5,0.3,7.2,0.5s5,0.9,7.2,1s5-0.4,7.2-0.5s5-0.1,7.2,0s5,0.6,7.2,0.5s5-0.7,7.2-1s5-1.3,7.2-1
	s5,2.7,7.2,3s5-0.5,7.2-1s5-2.5,7.2-2.5s5,2.1,7.2,2.5s5,0.1,7.2,0s5-0.2,7.2-0.5s5-1,7.2-1.5s5-1.4,7.2-1.5s5,0.8,7.2,1
	s5,0.2,7.2,0.5c2.2,0.3,5,1.3,7.2,1.5s5-1.2,7.2-0.5s5,3.4,7.2,4.9s5,4.3,7.2,4.9s5-0.3,7.2-0.5s5-0.6,7.2-0.5s5,1.1,7.2,1
	s5-1.9,7.2-2s5,1.4,7.2,1.5s5,0,7.2-1s5-6.3,7.2-5.4s5,11.2,7.2,11.3c2.2,0.1,5-10.1,7.2-10.8s5,5.6,7.2,5.9s5-4.8,7.2-3.9
	s5,8.4,7.2,9.8c2.2,1.4,5-0.6,7.2-0.5s5,2.1,7.2,1.5c2.2-0.6,5-5.3,7.2-5.4s5,3.5,7.2,4.9s5,4.4,7.2,4.4s5-3.7,7.2-3.9
	c2.2-0.2,5,3.3,7.2,2.5c2.2-0.9,5-7.9,7.2-8.4s5-2.3,7.2,5.4s5,46.7,7.2,46.3s5-42.1,7.2-49.2c2.2-7.1,5-0.3,7.2,2s5,10.6,7.2,13.3
	c2.2,2.7,5,4.8,7.2,4.9s5-2.9,7.2-3.9c2.2-1,5-1.8,7.2-3s5-5.5,7.2-4.4s5,7.4,7.2,11.3c2.2,3.9,5,11.1,7.2,14.8s5,4.5,7.2,9.8
	s5,21.1,7.2,26.1c2.2,4.9,5,8.8,7.2,6.9s5-18.2,7.2-19.7s5,0.2,7.2,9.8s5,51.6,7.2,54.1s5-28.1,7.2-36.9s5-21.6,7.2-21.7
	s5,13.8,7.2,21.2s5,15.4,7.2,28.1s5,53.4,7.2,56.1s5-31.1,7.2-38.4s5-12.2,7.2-10.3s5,23.2,7.2,22.6s5-26.4,7.2-26.6
	s5,23.4,7.2,25.6s5-9.4,7.2-10.8s5,2.4,7.2,1s5-11.5,7.2-10.3s5,22.8,7.2,18.2s5-43.2,7.2-48.7s5,12,7.2,11.8s5-5.8,7.2-13.3
	s5-31.5,7.2-36.4s5,0.2,7.2,3.9s5,16.5,7.2,20.7s5,5.3,7.2,6.9s5,3.6,7.2,3.9s5,0.6,7.2-1.5s5-9.9,7.2-12.3s5-2.2,7.2-3.9
	s5-8.4,7.2-7.4s5,8.7,7.2,14.3s5,21.2,7.2,22.6s5-10,7.2-12.8s5-6.6,7.2-5.9s5,10.3,7.2,10.8s5-3.9,7.2-7.4s5-14.8,7.2-15.7
	s5,11.3,7.2,9.4s5-18.9,7.2-22.6s5-4.2,7.2-2s5,14.3,7.2,16.7s5-3.4,7.2-0.5s5,21.9,7.2,20.2s5-27.2,7.2-31.5s5-0.7,7.2,3
	s5,17.7,7.2,21.7s5,5.2,7.2,4.4s5-5.7,7.2-9.4s5-11.5,7.2-15.3s5-13.5,7.2-9.8s5,32.4,7.2,34.5s5-15.1,7.2-20.7s5-17.2,7.2-16.7
	s5,16.2,7.2,19.7s5,7.1,7.2,3.4s5-24.6,7.2-27.6s5,5.5,7.2,7.9s5,9.6,7.2,7.9s5-21.8,7.2-19.7s5,30.5,7.2,33.5s5-13.6,7.2-13.8
	s5,8.2,7.2,12.3s5,18.2,7.2,15.3s5-33.4,7.2-34.9s5,18,7.2,24.6s5,22.6,7.2,19.2s5-39.2,7.2-41.8s5,22.3,7.2,24.1s5-8.8,7.2-12.3
	s5-8.2,7.2-11.3c2.2-3.1,5-13.2,7.2-9.4s5,31.2,7.2,34.9s5-2.8,7.2-9.8s5-36.7,7.2-37.4s5,28.6,7.2,32.5s5-9.4,7.2-6.4
	s5,26.2,7.2,26.1s5-24.7,7.2-26.6s5,14.8,7.2,14.3s5-16.8,7.2-17.7s5,14.7,7.2,11.8s5-29.4,7.2-31s5,18.8,7.2,20.2s5-10.7,7.2-10.8
	s5,10.7,7.2,9.8s5-14.1,7.2-15.3s5,9.8,7.2,7.9s5-23.6,7.2-20.7s5,35,7.2,40.4s5-1.9,7.2-4.4s5-8.8,7.2-12.3s5-12.1,7.2-11.3
	s5,12.3,7.2,16.2s5,7.4,7.2,9.8s5,4.8,7.2,6.4s5,6.1,7.2,4.4s5-14.2,7.2-15.7s5,7.5,7.2,5.4s5-18.2,7.2-19.2s5,11.6,7.2,12.3
	s5-3.5,7.2-7.4s5-19.1,7.2-18.7s5,19.5,7.2,21.7c1,1,3.3-1.5,7.2-7.4v15.7c-3.8,7.1-6.2,9.9-7.2,8.4c-2.2-3.5-5-31.9-7.2-31.5
	s-5,29.7-7.2,34.5s-5-0.4-7.2-2.5s-5-11.6-7.2-11.3s-5,10.3-7.2,13.3s-5,2.3-7.2,6.4s-5,19.9-7.2,20.7s-5-11.3-7.2-15.3
	s-5-9.5-7.2-11.3s-5,2.3-7.2-1s-5-18.7-7.2-21.2s-5,2.5-7.2,4.4s-5,6.4-7.2,8.4s-5,8.2-7.2,4.4s-5-27.8-7.2-29.5s-5,16.5-7.2,17.7
	s-5-10.1-7.2-9.8s-5,10.4-7.2,11.3s-5-6.1-7.2-4.9s-5,14.1-7.2,12.8s-5-22.2-7.2-21.2s-5,26.2-7.2,28.1s-5-16.3-7.2-15.7
	s-5,19.3-7.2,19.7s-5-18.9-7.2-17.2s-5,28-7.2,28.5s-5-22.1-7.2-25.1s-5,7.4-7.2,5.4s-5-23.6-7.2-18.7s-5,45.3-7.2,51.2
	s-5-5.8-7.2-11.8s-5-24.1-7.2-28.1s-5,0.1-7.2,1.5c-2.2,1.3-5,4.4-7.2,7.4s-5,14.5-7.2,12.3s-5-29.7-7.2-27.1s-5,39.8-7.2,44.8
	s-5-4.6-7.2-11.3s-5-34.1-7.2-33.5s-5,34.6-7.2,37.9s-5-11.2-7.2-16.2s-5-17.9-7.2-17.2s-5,24.2-7.2,21.7s-5-35.9-7.2-38.4
	s-5,19.1-7.2,21.7s-5-4-7.2-4.9s-5-2.6-7.2-1s-5,8.6-7.2,11.8s-5,11-7.2,9.4s-5-19-7.2-20.7s-5,5.1-7.2,9.8s-5,22-7.2,21.7
	s-5-19.5-7.2-23.6s-5-6.4-7.2-3.9s-5,13.7-7.2,20.2s-5,21.7-7.2,23.1s-5-7.6-7.2-13.3s-5-21.1-7.2-24.6s-5-3-7.2,1s-5,23.6-7.2,25.6
	s-5-9.2-7.2-12.3s-5-6.4-7.2-8.4s-5-5.1-7.2-4.9s-5,2.8-7.2,5.9s-5,12.6-7.2,14.8s-5-3.5-7.2-0.5s-5,15.7-7.2,20.7s-5,14.9-7.2,12.3
	s-5-26.4-7.2-29.5s-5,6.8-7.2,8.9s-5,7.3-7.2,4.9s-5-15.6-7.2-20.7s-5-13.7-7.2-13.3s-5,12.2-7.2,16.2s-5,10.2-7.2,10.8
	s-5-7-7.2-6.4s-5,10.3-7.2,10.3s-5-7.6-7.2-9.8s-5-3-7.2-4.9s-5-4.2-7.2-7.9s-5-20.1-7.2-16.7s-5,32.2-7.2,39.4s-5,7.9-7.2,8.4
	s-5-14-7.2-4.9s-5,61.6-7.2,65.5s-5-35.3-7.2-39.9s-5,7.1-7.2,9.4s-5,4.4-7.2,5.9s-5,4.8-7.2,3.9s-5-9.8-7.2-9.8s-5,11.2-7.2,9.8
	s-5-17-7.2-18.7s-5-2.4-7.2,7.4s-5,61.5-7.2,58.1s-5-65.3-7.2-80.7s-5-15.1-7.2-22.1s-5-24.4-7.2-25.1s-5,11.1-7.2,20.7
	s-5,46.3-7.2,42.8s-5-55.6-7.2-66s-5-5-7.2-3s-5,15.6-7.2,16.7s-5-3.9-7.2-8.9c-2.2-4.9-5-20.1-7.2-24.1s-5,1-7.2-3
	s-5-17.8-7.2-23.6s-5-13.8-7.2-15.3s-5,4.2-7.2,5.4c-2.2,1.3-5,0.9-7.2,3s-5,11.1-7.2,10.8s-5-9.2-7.2-12.8c-2.2-3.6-5-8.7-7.2-11.3
	c-2.2-2.6-5-15.7-7.2-5.9c-2.2,9.7-5,69.7-7.2,70.9s-5-52.9-7.2-63s-5-4.7-7.2-4.4c-2.2,0.3-5,5.5-7.2,6.4s-5-1-7.2-0.5
	s-5,4.3-7.2,3.9s-5-4.7-7.2-6.4c-2.2-1.7-5-5.4-7.2-4.9s-5,7.9-7.2,8.4c-2.2,0.4-5-4.2-7.2-5.4s-5-1.4-7.2-2.5
	c-2.2-1.1-5-4.2-7.2-4.9s-5,0.4-7.2,0s-5-3.8-7.2-3s-5,9.1-7.2,8.9c-2.2-0.2-5-9.2-7.2-10.3s-5,1.8-7.2,2.5s-5,1.6-7.2,2
	s-5,0.6-7.2,0.5s-5-1.4-7.2-1s-5,3.7-7.2,3.9s-5-2.8-7.2-2.5c-2.2,0.3-5,5.4-7.2,4.4s-5-8.5-7.2-10.8s-5-4.6-7.2-4.9s-5,2.3-7.2,2.5
	s-5-1.2-7.2-1.5c-2.2-0.3-5,0-7.2-0.5s-5-2.9-7.2-3s-5,2-7.2,2.5s-5,0.3-7.2,0.5s-5,0.3-7.2,0.5s-5,1.4-7.2,1s-5-3.3-7.2-3.4
	s-5,1.9-7.2,2.5s-5,1.3-7.2,1s-5-2.7-7.2-3s-5,0.7-7.2,1s-5,0.8-7.2,1s-5,0.6-7.2,0.5s-5-0.9-7.2-1s-5,0.6-7.2,0.5s-5-0.8-7.2-1
	s-5-0.2-7.2-0.5s-5-1.2-7.2-1.5s-5-0.9-7.2-0.5s-5,2.9-7.2,3s-5-2.1-7.2-2.5s-5-0.1-7.2,0s-5,0.8-7.2,1s-5,0.3-7.2,0s-5-1.7-7.2-2
	s-5,0.1-7.2,0.5s-5,1.7-7.2,2c-2.2,0.3-5,0-7.2,0c-2.2,0-5,0.2-7.2,0s-5-1.2-7.2-1.5c-2.2-0.3-5-0.6-7.2-0.5c-2.2,0.1-5,1.2-7.2,1
	C36.2,243.3,33.8,242.5,30,241z"/>
<path class="st1" d="M30,240c3.8-0.4,6.2-0.5,7.2-0.5c2.2,0.1,5,0.9,7.2,1c2.2,0.1,5-0.6,7.2-0.5c2.2,0.1,5,1.4,7.2,1.5s5-1.1,7.2-1
	c2.2,0.1,5,2,7.2,2c2.2,0,5-1.7,7.2-2s5,0.3,7.2,0.5s5,1,7.2,1s5-0.8,7.2-1s5,0.3,7.2,0s5-2,7.2-2s5,2.2,7.2,2.5s5-0.8,7.2-1
	s5-0.8,7.2-0.5s5,2.3,7.2,2.5s5-1.3,7.2-1.5s5-0.1,7.2,0s5,0.6,7.2,0.5s5-0.9,7.2-1s5,0.3,7.2,0.5s5,1.3,7.2,1s5-3.2,7.2-3
	s5,4.5,7.2,4.9s5-1.5,7.2-2s5-1.3,7.2-1.5s5,0.6,7.2,0.5s5-1.1,7.2-1s5,1.8,7.2,1.5s5-3.1,7.2-3.4s5,1.1,7.2,1.5s5,0.8,7.2,1
	s5,0.6,7.2,0.5c2.2-0.1,5-1.2,7.2-1.5s5-0.7,7.2-0.5s5,2,7.2,2s5-1.9,7.2-2s5,1.5,7.2,1.5s5-1.7,7.2-1.5s5,2.7,7.2,3s5-1.1,7.2-1
	s5,1.3,7.2,1.5s5,0.2,7.2,0s5-2.1,7.2-1.5s5,5.6,7.2,5.4s5-6.7,7.2-6.9s5,5.5,7.2,5.9s5-3.8,7.2-3s5,8.5,7.2,8.9s5-6.7,7.2-6.4
	s5,8.5,7.2,8.4s5-8.7,7.2-9.4s5,3.8,7.2,4.9s5,2.2,7.2,2.5s5-1.2,7.2-1s5,2.8,7.2,2.5s5-4,7.2-4.4s5-2.3,7.2,1.5s5,23.3,7.2,23.6
	s5-18.4,7.2-21.7s5-1.4,7.2,0s5,8.5,7.2,9.4c2.2,0.8,5-2.8,7.2-3.9s5-4.5,7.2-3.9s5,8.8,7.2,7.9c2.2-1,5-12.9,7.2-14.3
	s5,2.5,7.2,5.4c2.2,2.9,5,11.1,7.2,13.8s5-1.3,7.2,3.9s5,26.1,7.2,31c2.2,4.9,5,4.2,7.2,2s5-16.3,7.2-16.7s5,6.3,7.2,13.8
	s5,35.5,7.2,36.4s5-23.6,7.2-30s5-12.3,7.2-12.8s5,4.9,7.2,9.4s5,11.8,7.2,20.2s5,34.8,7.2,35.4s5-28,7.2-31.5s5,6.7,7.2,8.4
	s5,6.6,7.2,3s5-25.8,7.2-27.6s5,14.7,7.2,15.7s5-8,7.2-8.9s5,3.8,7.2,3s5-10.1,7.2-8.4s5,21.8,7.2,20.2s5-28.4,7.2-31s5,14,7.2,13.8
	s5-8.4,7.2-15.3s5-26.1,7.2-30.5c2.2-4.4,5-2.3,7.2,1c2.2,3.2,5,15.9,7.2,20.7s5,11.3,7.2,10.8s5-11.8,7.2-13.8s5,0.6,7.2,0.5
	s5-1.8,7.2-1.5s5,4.2,7.2,3.9s5-5.6,7.2-5.4s5,2.9,7.2,6.4s5,17.6,7.2,16.7s5-21.8,7.2-22.6s5,15.3,7.2,16.7s5-7.4,7.2-6.9
	s5,11.6,7.2,10.3s5-15.8,7.2-18.7s5,0.6,7.2-0.5s5-4.5,7.2-6.9s5-10.9,7.2-8.9c2.2,2.1,5,20.4,7.2,22.6s5-7.7,7.2-7.4s5,9.6,7.2,9.4
	s5-9.2,7.2-10.8s5-2.1,7.2,0s5,15.2,7.2,13.8s5-22,7.2-23.1s5,14.1,7.2,15.3s5-6,7.2-7.4s5-4.2,7.2-2s5,15.4,7.2,16.7s5-4.9,7.2-7.9
	s5-8.6,7.2-11.8s5-12.4,7.2-9.8s5,26.7,7.2,27.1s5-22,7.2-24.6s5,5,7.2,6.9s5,5.5,7.2,5.9s5-6.5,7.2-3s5,24.4,7.2,26.6
	s5-10,7.2-11.8s5-1.1,7.2-0.5s5,5.9,7.2,4.4s5-14.3,7.2-14.3s5,11.7,7.2,14.8s5,8.4,7.2,5.4s5-23.2,7.2-25.1s5,10.8,7.2,12.3
	s5-2.2,7.2-2.5s5,4.2,7.2,0.5c2.2-3.7,5-26.9,7.2-25.1c2.2,1.8,5,34.2,7.2,36.9s5-15,7.2-18.7s5-8,7.2-5.9s5,18.4,7.2,19.7
	s5-12.5,7.2-11.3s5,19.9,7.2,19.2s5-26.7,7.2-23.6s5,44.2,7.2,43.8s5-44.2,7.2-46.3s5,34.8,7.2,32.5s5-43.3,7.2-47.7
	c2.2-4.4,5,15.8,7.2,18.2s5-4.9,7.2-2s5,22.2,7.2,21.7s5-20.9,7.2-25.1s5-2.1,7.2-3s5-5.5,7.2-3s5,17.1,7.2,19.7s5-1.1,7.2-2.5
	s5-5.2,7.2-6.4s5-4.4,7.2-1.5s5,18.4,7.2,21.2s5-1.7,7.2-3s5-5,7.2-5.4s5,3.4,7.2,2.5s5-9.2,7.2-8.9s5,15,7.2,11.3s5-33.9,7.2-35.9
	c2.2-2.1,5,18.8,7.2,22.1s5,4.3,7.2,0.5s5-26.9,7.2-25.6s5,32.6,7.2,34.5c1,0.8,3.3-6.6,7.2-22.1v35.4c-3.8,5.9-6.2,8.3-7.2,7.4
	c-2.2-2.1-5-21.2-7.2-21.7s-5,14.8-7.2,18.7s-5,8.1-7.2,7.4s-5-13.3-7.2-12.3s-5,17.1-7.2,19.2s-5-7-7.2-5.4s-5,14.1-7.2,15.7
	s-5-2.8-7.2-4.4s-5-4-7.2-6.4s-5-5.9-7.2-9.8s-5-15.5-7.2-16.2s-5,7.8-7.2,11.3s-5,9.8-7.2,12.3s-5,9.8-7.2,4.4s-5-37.4-7.2-40.4
	s-5,18.8-7.2,20.7s-5-9-7.2-7.9s-5,14.4-7.2,15.3s-5-10-7.2-9.8s-5,12.2-7.2,10.8s-5-21.8-7.2-20.2s-5,28.1-7.2,31s-5-12.7-7.2-11.8
	s-5,17.2-7.2,17.7s-5-16.1-7.2-14.3s-5,26.5-7.2,26.6s-5-23.1-7.2-26.1s-5,10.3-7.2,6.4s-5-33.2-7.2-32.5s-5,30.3-7.2,37.4
	s-5,13.6-7.2,9.8s-5-31.1-7.2-34.9s-5,6.3-7.2,9.4c-2.2,3.1-5,7.8-7.2,11.3s-5,14.1-7.2,12.3s-5-26.8-7.2-24.1s-5,38.4-7.2,41.8
	s-5-12.6-7.2-19.2s-5-26.2-7.2-24.6s-5,32-7.2,34.9s-5-11.1-7.2-15.3s-5-12.5-7.2-12.3s-5,16.7-7.2,13.8s-5-31.4-7.2-33.5
	s-5,17.9-7.2,19.7s-5-5.5-7.2-7.9s-5-10.8-7.2-7.9s-5,23.9-7.2,27.6s-5,0-7.2-3.4s-5-19.2-7.2-19.7s-5,11.1-7.2,16.7
	s-5,22.7-7.2,20.7s-5-30.8-7.2-34.5s-5,6.1-7.2,9.8s-5,11.6-7.2,15.3s-5,8.6-7.2,9.4s-5-0.5-7.2-4.4s-5-18-7.2-21.7s-5-7.2-7.2-3
	s-5,29.8-7.2,31.5s-5-17.2-7.2-20.2s-5,2.9-7.2,0.5s-5-14.5-7.2-16.7s-5-1.7-7.2,2s-5,20.6-7.2,22.6s-5-10.3-7.2-9.4
	s-5,12.3-7.2,15.7s-5,7.9-7.2,7.4s-5-10.1-7.2-10.8s-5,3.1-7.2,5.9s-5,14.3-7.2,12.8s-5-17.1-7.2-22.6s-5-13.2-7.2-14.3
	s-5,5.7-7.2,7.4s-5,1.5-7.2,3.9s-5,10.2-7.2,12.3s-5,1.8-7.2,1.5s-5-2.3-7.2-3.9s-5-2.8-7.2-6.9s-5-17-7.2-20.7s-5-8.8-7.2-3.9
	s-5,29-7.2,36.4s-5,13.1-7.2,13.3s-5-17.3-7.2-11.8s-5,44.1-7.2,48.7s-5-17-7.2-18.2s-5,8.9-7.2,10.3s-5-2.5-7.2-1s-5,13-7.2,10.8
	s-5-25.7-7.2-25.6s-5,26-7.2,26.6s-5-20.8-7.2-22.6s-5,3-7.2,10.3s-5,41-7.2,38.4s-5-43.5-7.2-56.1s-5-20.7-7.2-28.1
	s-5-21.2-7.2-21.2s-5,12.9-7.2,21.7s-5,39.5-7.2,36.9s-5-44.5-7.2-54.1s-5-11.3-7.2-9.8s-5,17.8-7.2,19.7s-5-1.9-7.2-6.9
	c-2.2-4.9-5-20.7-7.2-26.1s-5-6.2-7.2-9.8s-5-10.9-7.2-14.8s-5-10.3-7.2-11.3s-5,3.3-7.2,4.4s-5,1.9-7.2,3c-2.2,1-5,4.1-7.2,3.9
	s-5-2.2-7.2-4.9c-2.2-2.7-5-11-7.2-13.3s-5-9.1-7.2-2c-2.2,7.1-5,48.8-7.2,49.2s-5-38.5-7.2-46.3s-5-5.9-7.2-5.4s-5,7.5-7.2,8.4
	c-2.2,0.9-5-2.7-7.2-2.5c-2.2,0.2-5,4-7.2,3.9s-5-3-7.2-4.4s-5-5-7.2-4.9s-5,4.8-7.2,5.4c-2.2,0.6-5-1.3-7.2-1.5s-5,1.9-7.2,0.5
	c-2.2-1.4-5-9-7.2-9.8s-5,4.2-7.2,3.9s-5-6.6-7.2-5.9s-5,10.9-7.2,10.8c-2.2-0.1-5-10.4-7.2-11.3s-5,4.5-7.2,5.4s-5,1.1-7.2,1
	s-5-1.6-7.2-1.5s-5,1.8-7.2,2s-5-0.9-7.2-1s-5,0.3-7.2,0.5s-5,1.2-7.2,0.5s-5-3.4-7.2-4.9s-5-4.3-7.2-4.9s-5,0.6-7.2,0.5
	s-5-1.2-7.2-1.5c-2.2-0.3-5-0.3-7.2-0.5s-5-1.1-7.2-1s-5,1-7.2,1.5s-5,1.2-7.2,1.5s-5,0.4-7.2,0.5s-5,0.4-7.2,0s-5-2.5-7.2-2.5
	s-5,1.9-7.2,2.5s-5,1.3-7.2,1s-5-2.7-7.2-3s-5,0.7-7.2,1s-5,0.9-7.2,1s-5-0.4-7.2-0.5s-5-0.1-7.2,0s-5,0.6-7.2,0.5s-5-0.8-7.2-1
	s-5-0.2-7.2-0.5s-5-1.2-7.2-1.5s-5-0.9-7.2-0.5s-5,2.9-7.2,3s-5-2.1-7.2-2.5s-5-0.1-7.2,0s-5,0.8-7.2,1s-5,0.3-7.2,0s-5-1.7-7.2-2
	s-5,0.1-7.2,0.5s-5,1.7-7.2,2c-2.2,0.3-5,0-7.2,0c-2.2,0-5,0.2-7.2,0s-5-1.2-7.2-1.5c-2.2-0.3-5-0.6-7.2-0.5c-2.2,0.1-5,1.2-7.2,1
	c-1-0.1-3.3-0.9-7.2-2.5V240z"/>
<path class="st2" d="M30,240c3.8-0.4,6.2-0.5,7.2-0.5c2.2,0.1,5,0.9,7.2,1c2.2,0.1,5-0.6,7.2-0.5c2.2,0.1,5,1.4,7.2,1.5s5-1.1,7.2-1
	c2.2,0.1,5,2,7.2,2c2.2,0,5-1.7,7.2-2s5,0.3,7.2,0.5s5,1,7.2,1s5-0.8,7.2-1s5,0.3,7.2,0s5-2,7.2-2s5,2.2,7.2,2.5s5-0.8,7.2-1
	s5-0.8,7.2-0.5s5,2.3,7.2,2.5s5-1.3,7.2-1.5s5-0.1,7.2,0s5,0.7,7.2,0.5s5-1.9,7.2-2s5,1.1,7.2,1.5s5,1.3,7.2,1s5-3.2,7.2-3
	s5,4.5,7.2,4.9s5-1.5,7.2-2s5-1.3,7.2-1.5s5,0.6,7.2,0.5s5-1.1,7.2-1s5,1.8,7.2,1.5s5-3.1,7.2-3.4s5,1.1,7.2,1.5s5,0.9,7.2,1
	s5-0.3,7.2-0.5c2.2-0.1,5-0.2,7.2-0.5s5-1.4,7.2-1.5s5,0.8,7.2,1s5,0.1,7.2,0s5,0.1,7.2-0.5s5-3.8,7.2-3.4s5,5.3,7.2,5.9
	s5-1.9,7.2-2s5,1,7.2,1.5s5,2.3,7.2,2s5-4.3,7.2-4.4s5,3.5,7.2,3.4s5-4.2,7.2-3.9s5,5.8,7.2,5.9s5-5.4,7.2-4.9s5,6.9,7.2,7.9
	s5-1.6,7.2-1.5s5,2.6,7.2,2.5s5-3.4,7.2-3.4s5,2.6,7.2,3s5-1,7.2-0.5s5,3.9,7.2,3.9s5-1.7,7.2-3.4s5-7.6,7.2-8.4s5-0.6,7.2,3.4
	s5,22.9,7.2,23.6s5-15.7,7.2-18.7s5-2.7,7.2-1s5,11.9,7.2,12.3s5-7.9,7.2-9.8s5-4,7.2-3s5,9.8,7.2,9.8s5-8,7.2-9.4s5-0.6,7.2,0.5
	c2.2,1.1,5,3.8,7.2,6.9c2.2,3.1,5,10.3,7.2,13.8c2.2,3.5,5,5.6,7.2,9.4c2.2,3.8,5,17.5,7.2,15.7s5-25.3,7.2-27.6
	c2.2-2.2,5,4.7,7.2,12.8s5,40.1,7.2,41.3s5-25.5,7.2-33s5-16.1,7.2-16.7s5,6.7,7.2,12.3s5,17.5,7.2,25.1s5,28.1,7.2,25.6
	s5-38.7,7.2-42.3s5,17.8,7.2,18.2s5-8.8,7.2-15.7s5-29.6,7.2-30.5s5,24.3,7.2,24.6s5-21,7.2-22.6c2.2-1.6,5,10.4,7.2,11.8
	s5-4.4,7.2-2.5c2.2,1.9,5,14.4,7.2,15.3s5-7.1,7.2-9.4s5-3.9,7.2-5.9s5-3.8,7.2-7.4s5-11.6,7.2-16.7s5-19.8,7.2-17.7s5,26,7.2,31.5
	c2.2,5.5,5,6,7.2,4.9s5-8.9,7.2-11.8s5-5.9,7.2-7.4s5-4.3,7.2-2.5s5,13.4,7.2,14.8s5-4.7,7.2-5.4s5-1.9,7.2,0.5s5,14.6,7.2,15.7
	s5-7.1,7.2-7.9c2.2-0.7,5,3.7,7.2,3s5-8.8,7.2-7.9s5,15.2,7.2,14.3c2.2-1,5-19.4,7.2-20.7s5,14,7.2,12.3c2.2-1.7,5-21,7.2-23.6
	s5,2.4,7.2,5.9s5,14.7,7.2,17.7s5,6.9,7.2,2.5c2.2-4.4,5-30.4,7.2-32s5,18,7.2,21.7c2.2,3.7,5,0.1,7.2,3s5,19.4,7.2,15.7
	s5-38.4,7.2-39.9s5,25.4,7.2,30s5,3.1,7.2,0.5c2.2-2.6,5-19.3,7.2-17.7s5,26.3,7.2,28.5s5-11.1,7.2-13.8s5-0.7,7.2-3.9
	c2.2-3.2,5-20.3,7.2-17.7s5,32.8,7.2,34.9s5-19.9,7.2-20.7s5,13.7,7.2,15.7c2.2,2.1,5,0.5,7.2-2s5-18.8,7.2-14.8
	c2.2,4,5,36.9,7.2,41.3s5-9.1,7.2-11.8s5-6.4,7.2-6.4s5,8.5,7.2,6.4s5-18.8,7.2-20.2s5,9.6,7.2,10.8c2.2,1.3,5-0.8,7.2-2.5
	s5-7,7.2-8.4s5-0.5,7.2-0.5s5,0.2,7.2,0.5s5,2.7,7.2,1.5c2.2-1.2,5-10.7,7.2-9.4s5,15.9,7.2,18.2s5-1,7.2-3c2.2-1.9,5-10.1,7.2-9.8
	s5,9.8,7.2,11.8s5,1.5,7.2,1.5s5,1.3,7.2-1.5s5-20.6,7.2-16.7c2.2,3.9,5,42.6,7.2,42.8s5-38.8,7.2-41.3c2.2-2.5,5,24.7,7.2,24.6
	s5-23,7.2-25.1c2.2-2.1,5,10.1,7.2,11.3s5-3.8,7.2-3c2.2,0.9,5,8.8,7.2,8.9c2.2,0.1,5-6.4,7.2-8.4s5-3.9,7.2-4.9s5-2.9,7.2-2
	s5,7.7,7.2,7.9s5-5.1,7.2-6.4s5-2.8,7.2-2.5s5-0.3,7.2,4.4s5,24.8,7.2,27.1s5-7,7.2-11.8s5-17.5,7.2-20.2s5,3.3,7.2,2.5
	s5-8.4,7.2-7.9s5,12.8,7.2,11.3s5-21.8,7.2-21.2s5,21.7,7.2,25.1c2.2,3.4,5,0.4,7.2-2.5s5-17.8,7.2-16.7s5,22.5,7.2,23.6
	c1,0.5,3.3-4.9,7.2-16.2V272c-3.8,15.6-6.2,23-7.2,22.1c-2.2-1.8-5-33.1-7.2-34.5s-5,21.8-7.2,25.6s-5,2.9-7.2-0.5s-5-24.2-7.2-22.1
	c-2.2,2.1-5,32.2-7.2,35.9s-5-11-7.2-11.3s-5,7.9-7.2,8.9s-5-2.9-7.2-2.5s-5,4.2-7.2,5.4s-5,5.7-7.2,3s-5-18.2-7.2-21.2
	s-5,0.3-7.2,1.5s-5,5.1-7.2,6.4s-5,5-7.2,2.5s-5-17.2-7.2-19.7c-2.2-2.5-5,2.1-7.2,3s-5-1.3-7.2,3s-5,24.6-7.2,25.1
	s-5-18.7-7.2-21.7s-5,4.4-7.2,2s-5-22.6-7.2-18.2c-2.2,4.4-5,45.5-7.2,47.7s-5-34.6-7.2-32.5s-5,45.9-7.2,46.3s-5-40.8-7.2-43.8
	s-5,23-7.2,23.6s-5-18-7.2-19.2s-5,12.6-7.2,11.3s-5-17.6-7.2-19.7s-5,2.2-7.2,5.9s-5,21.4-7.2,18.7s-5-35.1-7.2-36.9
	c-2.2-1.8-5,21.4-7.2,25.1c-2.2,3.7-5-0.8-7.2-0.5s-5,3.9-7.2,2.5s-5-14.2-7.2-12.3s-5,22.1-7.2,25.1s-5-2.4-7.2-5.4
	s-5-14.7-7.2-14.8s-5,12.8-7.2,14.3s-5-3.8-7.2-4.4s-5-1.4-7.2,0.5s-5,14-7.2,11.8s-5-23-7.2-26.6s-5,3.4-7.2,3s-5-4-7.2-5.9
	s-5-9.5-7.2-6.9c-2.2,2.7-5,25-7.2,24.6s-5-24.5-7.2-27.1s-5,6.6-7.2,9.8s-5,8.9-7.2,11.8s-5,9.2-7.2,7.9s-5-14.5-7.2-16.7
	s-5,0.6-7.2,2s-5,8.6-7.2,7.4s-5-16.4-7.2-15.3s-5,21.7-7.2,23.1s-5-11.7-7.2-13.8s-5-1.6-7.2,0s-5,10.6-7.2,10.8s-5-9.1-7.2-9.4
	s-5,9.7-7.2,7.4s-5-20.6-7.2-22.6c-2.2-2.1-5,6.5-7.2,8.9s-5,5.8-7.2,6.9s-5-2.4-7.2,0.5s-5,17.4-7.2,18.7s-5-9.8-7.2-10.3
	s-5,8.4-7.2,6.9s-5-17.6-7.2-16.7s-5,21.8-7.2,22.6s-5-13.3-7.2-16.7s-5-6.3-7.2-6.4s-5,5.2-7.2,5.4s-5-3.6-7.2-3.9s-5,1.3-7.2,1.5
	s-5-2.5-7.2-0.5s-5,13.3-7.2,13.8s-5-6.1-7.2-10.8s-5-17.4-7.2-20.7c-2.2-3.2-5-5.4-7.2-1c-2.2,4.4-5,23.6-7.2,30.5s-5,15-7.2,15.3
	s-5-16.4-7.2-13.8s-5,29.4-7.2,31s-5-18.4-7.2-20.2s-5,7.6-7.2,8.4s-5-3.8-7.2-3s-5,9.9-7.2,8.9s-5-17.5-7.2-15.7s-5,23.9-7.2,27.6
	s-5-1.3-7.2-3s-5-11.8-7.2-8.4s-5,32.1-7.2,31.5s-5-27.1-7.2-35.4s-5-15.7-7.2-20.2s-5-9.9-7.2-9.4s-5,6.4-7.2,12.8s-5,31-7.2,30
	s-5-28.9-7.2-36.4s-5-14.2-7.2-13.8s-5,14.5-7.2,16.7s-5,3-7.2-2c-2.2-4.9-5-25.8-7.2-31s-5-1.3-7.2-3.9c-2.2-2.7-5-10.9-7.2-13.8
	s-5-6.7-7.2-5.4s-5,13.3-7.2,14.3c-2.2,1-5-7.3-7.2-7.9s-5,2.8-7.2,3.9s-5,4.7-7.2,3.9s-5-7.9-7.2-9.4s-5-3.2-7.2,0s-5,22-7.2,21.7
	s-5-19.9-7.2-23.6s-5-1.9-7.2-1.5s-5,4.1-7.2,4.4s-5-2.2-7.2-2.5s-5,1.2-7.2,1s-5-1.4-7.2-2.5s-5-5.6-7.2-4.9s-5,9.2-7.2,9.4
	s-5-8.1-7.2-8.4s-5,6.8-7.2,6.4s-5-8-7.2-8.9s-5,3.4-7.2,3s-5-6.1-7.2-5.9s-5,6.7-7.2,6.9s-5-4.8-7.2-5.4s-5,1.3-7.2,1.5
	s-5,0.2-7.2,0s-5-1.4-7.2-1.5s-5,1.3-7.2,1s-5-2.7-7.2-3s-5,1.5-7.2,1.5s-5-1.6-7.2-1.5s-5,2-7.2,2s-5-1.7-7.2-2s-5,0.2-7.2,0.5
	s-5,1.3-7.2,1.5c-2.2,0.1-5-0.3-7.2-0.5s-5-0.6-7.2-1s-5-1.8-7.2-1.5s-5,3.1-7.2,3.4s-5-1.4-7.2-1.5s-5,0.9-7.2,1s-5-0.6-7.2-0.5
	s-5,1-7.2,1.5s-5,2.4-7.2,2s-5-4.6-7.2-4.9s-5,2.7-7.2,3s-5-0.8-7.2-1s-5-0.6-7.2-0.5s-5,0.9-7.2,1s-5-0.4-7.2-0.5s-5-0.2-7.2,0
	s-5,1.6-7.2,1.5s-5-2.2-7.2-2.5s-5,0.3-7.2,0.5s-5,1.2-7.2,1s-5-2.4-7.2-2.5s-5,1.7-7.2,2s-5-0.1-7.2,0s-5,1-7.2,1s-5-0.8-7.2-1
	s-5-0.7-7.2-0.5s-5,2-7.2,2c-2.2,0-5-1.8-7.2-2c-2.2-0.1-5,1.1-7.2,1s-5-1.3-7.2-1.5c-2.2-0.1-5,0.6-7.2,0.5c-2.2-0.1-5-0.9-7.2-1
	C36.2,239.5,33.8,239.6,30,240z"/>
<path class="st3" d="M30,240c3.8-0.4,6.2-0.5,7.2-0.5c2.2,0.1,5,0.9,7.2,1c2.2,0.1,5-0.6,7.2-0.5c2.2,0.1,5,1.4,7.2,1.5s5-1.1,7.2-1
	c2.2,0.1,5,2,7.2,2c2.2,0,5-1.7,7.2-2s5,0.3,7.2,0.5s5,1,7.2,1s5-0.8,7.2-1s5,0.3,7.2,0s5-2,7.2-2s5,2.2,7.2,2.5s5-0.8,7.2-1
	s5-0.8,7.2-0.5s5,2.3,7.2,2.5s5-1.3,7.2-1.5s5-0.1,7.2,0s5,0.7,7.2,0.5s5-1.9,7.2-2s5,1.1,7.2,1.5s5,1.3,7.2,1s5-3.2,7.2-3
	s5,4.5,7.2,4.9s5-1.5,7.2-2s5-1.3,7.2-1.5s5,0.6,7.2,0.5s5-1.1,7.2-1s5,1.8,7.2,1.5s5-3.1,7.2-3.4s5,1.1,7.2,1.5s5,0.9,7.2,1
	s5-0.3,7.2-0.5c2.2-0.1,5-0.2,7.2-0.5s5-1.4,7.2-1.5s5,0.8,7.2,1s5,0.4,7.2,0s5-1.9,7.2-2.5s5-2.1,7.2-1.5s5,5.5,7.2,5.9
	s5-2.7,7.2-3s5,1,7.2,1.5s5,2.3,7.2,2s5-3.8,7.2-4.4s5,0.7,7.2,0.5s5-2.6,7.2-2s5,5.9,7.2,5.9s5-6.6,7.2-5.9s5,10.3,7.2,10.8
	s5-6.9,7.2-7.4s5,4.9,7.2,4.4s5-7.3,7.2-7.4s5,6.1,7.2,6.9s5-1.7,7.2-1.5s5,2.7,7.2,3s5-0.4,7.2-1.5s5-5,7.2-5.4s5,0.3,7.2,2.5
	s5,10.8,7.2,11.8s5-3.7,7.2-4.9s5-4.1,7.2-3s5,10.4,7.2,10.3s5-9.5,7.2-10.8s5,0.6,7.2,2s5,7.6,7.2,6.9s5-10.1,7.2-11.3
	s5,2.9,7.2,3.4c2.2,0.5,5-1.9,7.2,0s5,10.7,7.2,12.8c2.2,2.1,5-0.7,7.2,1.5c2.2,2.1,5,14,7.2,12.8c2.2-1.2,5-18.2,7.2-20.7
	s5,0.2,7.2,3.9s5,19,7.2,20.7s5-4.6,7.2-9.4c2.2-4.8,5-22.3,7.2-22.6s5,13.5,7.2,20.2c2.2,6.6,5,18,7.2,24.1s5,18.4,7.2,16.7
	s5-26.7,7.2-27.6s5,22.7,7.2,22.1s5-18.5,7.2-25.6s5-21.8,7.2-21.7s5,22.3,7.2,22.6s5-20.2,7.2-20.7s5,15.7,7.2,17.7s5-5.2,7.2-4.4
	c2.2,0.7,5,10.8,7.2,9.4s5-16.9,7.2-19.2c2.2-2.3,5,3.3,7.2,3.9s5,2.5,7.2,0.5s5-8.9,7.2-13.8s5-19.9,7.2-18.7s5,21.9,7.2,26.6
	c2.2,4.7,5,6.4,7.2,4.9s5-12.3,7.2-14.8s5-0.6,7.2-1.5s5-5.8,7.2-4.4s5,14,7.2,13.8s5-13.9,7.2-15.3s5,2.9,7.2,6.4s5,14.8,7.2,16.7
	s5-2.6,7.2-3.9s5-4.3,7.2-4.9s5-0.4,7.2,1s5,9.2,7.2,8.4s5-12.8,7.2-13.8s5,9.2,7.2,7.4c2.2-1.8,5-17,7.2-19.7s5-1.4,7.2,2
	s5,16.9,7.2,20.7c2.2,3.8,5,8.9,7.2,4.4s5-31.7,7.2-34s5,14.7,7.2,18.7s5,4.5,7.2,7.9c2.2,3.4,5,18.1,7.2,14.8s5-35.4,7.2-36.9
	s5,22.8,7.2,27.1s5,4.4,7.2,1.5s5-19.9,7.2-20.7s5,13.5,7.2,15.7c2.2,2.2,5-0.5,7.2-1s5,0.2,7.2-2s5-14.6,7.2-12.8s5,23.6,7.2,25.1
	s5-13,7.2-14.8s5,1.8,7.2,3s5,5.8,7.2,4.9s5-15.1,7.2-10.8s5,35.4,7.2,39.4s5-9.5,7.2-12.8s5-9.2,7.2-9.4c2.2-0.1,5,10,7.2,8.4
	s5-18.4,7.2-19.2c2.2-0.8,5,14.6,7.2,13.8s5-17.3,7.2-19.2s5,8.3,7.2,6.4s5-18.9,7.2-19.2s5,14.4,7.2,17.2s5,4,7.2,1.5
	c2.2-2.5,5-16.7,7.2-18.2s5,9.9,7.2,8.4s5-19.4,7.2-18.7s5,17.7,7.2,23.6c2.2,5.9,5,15.4,7.2,15.7s5-9.9,7.2-13.3s5-8.1,7.2-9.4
	s5-5.4,7.2,1s5,43.2,7.2,41.8s5-46.5,7.2-51.2s5,19,7.2,19.7s5-16,7.2-15.3s5,18.2,7.2,20.2s5-6.7,7.2-6.9s5,6.1,7.2,5.9
	c2.2-0.2,5-6.6,7.2-7.4s5,2,7.2,2s5-3,7.2-2s5,9.4,7.2,8.9s5-10.7,7.2-12.3s5,3.1,7.2,1.5s5-13.9,7.2-12.3s5,20.3,7.2,23.1
	s5,0,7.2-3.9c2.2-3.9,5-20.2,7.2-22.1s5,8.8,7.2,9.4s5-8.6,7.2-5.9s5,25.4,7.2,24.1s5-30.8,7.2-33s5,14.5,7.2,18.2s5,8.4,7.2,6.4
	s5-21.2,7.2-19.7s5,30.3,7.2,29.5c1-0.4,3.3-12,7.2-34.9v27.6c-3.8,11.3-6.2,16.7-7.2,16.2c-2.2-1.1-5-22.6-7.2-23.6
	s-5,13.9-7.2,16.7s-5,5.9-7.2,2.5c-2.2-3.4-5-24.5-7.2-25.1s-5,19.7-7.2,21.2s-5-10.8-7.2-11.3s-5,7.1-7.2,7.9s-5-5.1-7.2-2.5
	c-2.2,2.7-5,15.4-7.2,20.2s-5,14.1-7.2,11.8s-5-22.3-7.2-27.1s-5-4.1-7.2-4.4s-5,1.1-7.2,2.5s-5,6.6-7.2,6.4s-5-7-7.2-7.9
	s-5,0.9-7.2,2s-5,2.9-7.2,4.9s-5,8.4-7.2,8.4c-2.2-0.1-5-8-7.2-8.9c-2.2-0.9-5,4.2-7.2,3s-5-13.4-7.2-11.3c-2.2,2.1-5,25-7.2,25.1
	s-5-27.1-7.2-24.6s-5,41.6-7.2,41.3s-5-38.9-7.2-42.8c-2.2-3.9-5,14-7.2,16.7s-5,1.5-7.2,1.5s-5,0.5-7.2-1.5s-5-11.5-7.2-11.8
	s-5,7.9-7.2,9.8c-2.2,1.9-5,5.2-7.2,3s-5-16.9-7.2-18.2s-5,8.2-7.2,9.4c-2.2,1.2-5-1.2-7.2-1.5s-5-0.5-7.2-0.5s-5-0.8-7.2,0.5
	s-5,6.7-7.2,8.4s-5,3.7-7.2,2.5c-2.2-1.3-5-12.2-7.2-10.8s-5,18.1-7.2,20.2s-5-6.4-7.2-6.4s-5,3.7-7.2,6.4s-5,16.2-7.2,11.8
	s-5-37.4-7.2-41.3s-5,12.3-7.2,14.8c-2.2,2.5-5,4-7.2,2c-2.2-2.1-5-16.5-7.2-15.7c-2.2,0.7-5,22.8-7.2,20.7s-5-32.4-7.2-34.9
	s-5,14.5-7.2,17.7c-2.2,3.2-5,1.3-7.2,3.9s-5,16-7.2,13.8s-5-26.9-7.2-28.5s-5,15.1-7.2,17.7c-2.2,2.6-5,4.1-7.2-0.5s-5-31.5-7.2-30
	s-5,36.2-7.2,39.9s-5-12.9-7.2-15.7s-5,0.7-7.2-3c-2.2-3.7-5-23.2-7.2-21.7s-5,27.6-7.2,32c-2.2,4.4-5,0.6-7.2-2.5
	c-2.2-3-5-14.2-7.2-17.7s-5-8.6-7.2-5.9s-5,21.9-7.2,23.6s-5-13.6-7.2-12.3s-5,19.7-7.2,20.7c-2.2,1-5-13.3-7.2-14.3s-5,7.1-7.2,7.9
	s-5-3.7-7.2-3c-2.2,0.7-5,9.1-7.2,7.9c-2.2-1.2-5-13.3-7.2-15.7c-2.2-2.4-5-1.2-7.2-0.5s-5,6.8-7.2,5.4s-5-12.9-7.2-14.8
	s-5,1-7.2,2.5s-5,4.5-7.2,7.4s-5,10.8-7.2,11.8s-5,0.5-7.2-4.9c-2.2-5.5-5-29.4-7.2-31.5s-5,12.6-7.2,17.7s-5,13.1-7.2,16.7
	s-5,5.4-7.2,7.4s-5,3.6-7.2,5.9s-5,10.2-7.2,9.4s-5-13.3-7.2-15.3c-2.2-1.9-5,3.9-7.2,2.5s-5-13.4-7.2-11.8
	c-2.2,1.6-5,22.9-7.2,22.6s-5-25.5-7.2-24.6s-5,23.6-7.2,30.5s-5,16.1-7.2,15.7s-5-21.8-7.2-18.2s-5,39.8-7.2,42.3s-5-18-7.2-25.6
	s-5-19.5-7.2-25.1s-5-13-7.2-12.3s-5,9.3-7.2,16.7s-5,34.2-7.2,33s-5-33.2-7.2-41.3s-5-15-7.2-12.8c-2.2,2.2-5,25.8-7.2,27.6
	s-5-12-7.2-15.7c-2.2-3.8-5-5.9-7.2-9.4c-2.2-3.5-5-10.7-7.2-13.8c-2.2-3.1-5-5.8-7.2-6.9s-5-1.8-7.2-0.5s-5,9.4-7.2,9.4
	s-5-8.8-7.2-9.8s-5,1-7.2,3s-5,10.2-7.2,9.8s-5-10.6-7.2-12.3s-5-2-7.2,1s-5,19.4-7.2,18.7s-5-19.6-7.2-23.6s-5-4.2-7.2-3.4
	s-5,6.6-7.2,8.4s-5,3.5-7.2,3.4s-5-3.4-7.2-3.9s-5,0.9-7.2,0.5s-5-3-7.2-3s-5,3.3-7.2,3.4s-5-2.3-7.2-2.5s-5,2.4-7.2,1.5
	s-5-7.4-7.2-7.9s-5,5.1-7.2,4.9s-5-5.6-7.2-5.9s-5,3.9-7.2,3.9s-5-3.6-7.2-3.4s-5,4.1-7.2,4.4s-5-1.5-7.2-2s-5-1.6-7.2-1.5
	s-5,2.6-7.2,2s-5-5.5-7.2-5.9s-5,2.9-7.2,3.4s-5,0.4-7.2,0.5s-5,0.1-7.2,0s-5-1.1-7.2-1s-5,1.2-7.2,1.5s-5,0.3-7.2,0.5
	c-2.2,0.1-5,0.6-7.2,0.5s-5-0.6-7.2-1s-5-1.8-7.2-1.5s-5,3.1-7.2,3.4s-5-1.4-7.2-1.5s-5,0.9-7.2,1s-5-0.6-7.2-0.5s-5,1-7.2,1.5
	s-5,2.4-7.2,2s-5-4.6-7.2-4.9s-5,2.7-7.2,3s-5-0.6-7.2-1s-5-1.6-7.2-1.5s-5,1.7-7.2,2s-5-0.4-7.2-0.5s-5-0.2-7.2,0s-5,1.6-7.2,1.5
	s-5-2.2-7.2-2.5s-5,0.3-7.2,0.5s-5,1.2-7.2,1s-5-2.4-7.2-2.5s-5,1.7-7.2,2s-5-0.1-7.2,0s-5,1-7.2,1s-5-0.8-7.2-1s-5-0.7-7.2-0.5
	s-5,2-7.2,2c-2.2,0-5-1.8-7.2-2c-2.2-0.1-5,1.1-7.2,1s-5-1.3-7.2-1.5c-2.2-0.1-5,0.6-7.2,0.5c-2.2-0.1-5-0.9-7.2-1
	C36.2,239.5,33.8,239.6,30,240z"/>
<path class="st4" d="M30,240c3.8-0.9,6.2-1.4,7.2-1.5c2.2-0.2,5,0.1,7.2,0c2.2-0.1,5-0.5,7.2-0.5c2.2,0,5,0.4,7.2,0.5s5,0,7.2,0
	c2.2,0,5,0.1,7.2,0c2.2-0.1,5-0.9,7.2-1s5,0.4,7.2,0.5s5,0.1,7.2,0s5-1.1,7.2-1s5,2,7.2,2s5-1.7,7.2-2s5,0.3,7.2,0.5s5,0.8,7.2,1
	s5,0.2,7.2,0.5s5,1.6,7.2,1.5s5-2.1,7.2-2.5s5-0.2,7.2,0s5,1.8,7.2,1.5s5-4,7.2-3.9s5,3.9,7.2,4.4s5-0.5,7.2-1s5-2,7.2-2
	s5,1.7,7.2,2s5,0.1,7.2,0s5-0.2,7.2-0.5s5-1.7,7.2-1.5s5,2.7,7.2,3s5-1,7.2-1.5s5-1.5,7.2-1.5s5,1.3,7.2,1.5s5,0.1,7.2,0
	s5-0.5,7.2-0.5c2.2,0,5,0.8,7.2,0.5s5-2.2,7.2-2.5s5,1,7.2,1s5-0.8,7.2-1s5,0,7.2-0.5s5-3,7.2-2.5s5,5.8,7.2,5.9s5-4.1,7.2-4.9
	s5-1.2,7.2-0.5s5,4.7,7.2,4.9s5-3.1,7.2-3.4s5,1.4,7.2,1.5s5-1.3,7.2-1s5,3.1,7.2,3s5-4.8,7.2-3.9s5,9.2,7.2,9.8s5-4.7,7.2-5.4
	s5,0.9,7.2,0.5s5-3.8,7.2-3.4s5,5.4,7.2,5.9s5-1.9,7.2-2.5s5-1.2,7.2-1s5,3.3,7.2,2.5s5-7.8,7.2-8.4s5,4.5,7.2,4.4s5-5.7,7.2-4.9
	s5,8.4,7.2,9.8s5-1.6,7.2,0s5,10.9,7.2,10.3s5-11.4,7.2-13.8s5-3.7,7.2-2s5,14,7.2,13.8s5-12.6,7.2-15.3s5-3.3,7.2-2.5
	c2.2,0.8,5,6,7.2,7.9s5,4.7,7.2,4.9s5-4.7,7.2-3.4c2.2,1.3,5,11.7,7.2,11.8s5-9.4,7.2-10.8s5,0.8,7.2,1s5-2,7.2,0s5,14.4,7.2,13.3
	s5-18.8,7.2-20.7s5,3.1,7.2,8.4s5,20.1,7.2,27.1s5,21.6,7.2,19.7s5-31.2,7.2-32.5c2.2-1.3,5,24.6,7.2,24.1s5-20.5,7.2-27.6
	c2.2-7.1,5-20.3,7.2-19.7s5,23.6,7.2,23.6s5-22.6,7.2-23.6s5,13.7,7.2,16.7s5,4.2,7.2,3.4s5-7.3,7.2-8.4s5,1.3,7.2,1.5s5,0.2,7.2,0
	s5-0.7,7.2-1.5s5,0.2,7.2-3.9s5-23.2,7.2-23.6s5,16.1,7.2,20.7s5,12.6,7.2,9.8s5-25.1,7.2-28.5s5,5.1,7.2,5.4s5-5.3,7.2-3.4
	s5,15.8,7.2,15.7s5-15.1,7.2-16.2s5,5.3,7.2,8.4s5,10.5,7.2,11.8s5-2.4,7.2-3s5-1,7.2-1s5,1.4,7.2,1s5-3.1,7.2-3.4s5,0.6,7.2,1
	s5,5.4,7.2,1.5s5-25.2,7.2-27.6s5,7.5,7.2,11.8s5,14.1,7.2,16.7s5,5.8,7.2,0.5s5-35.9,7.2-35.9s5,29.1,7.2,35.4s5,6.6,7.2,6.9
	s5-2.3,7.2-4.9s5-13.8,7.2-12.3s5,18.8,7.2,22.1s5,3.8,7.2,0.5c2.2-3.3,5-20.3,7.2-22.6s5,4.8,7.2,6.9s5,5.3,7.2,6.9s5,6.9,7.2,3.9
	s5-24.1,7.2-23.6s5,24.2,7.2,27.1s5-6.1,7.2-7.9s5-4.7,7.2-3.9s5,9.6,7.2,8.9s5-18.1,7.2-13.8s5,37.9,7.2,42.3s5-9.9,7.2-12.8
	c2.2-2.9,5-4.9,7.2-6.4s5-2.1,7.2-3.4s5-6.8,7.2-5.4s5,16.2,7.2,14.8s5-21.9,7.2-24.1s5,11,7.2,9.4s5-19,7.2-20.2s5,9.6,7.2,12.3
	s5,7.6,7.2,5.4c2.2-2.2,5-19.3,7.2-20.2s5,15.8,7.2,14.3s5-25.1,7.2-24.6s5,21.1,7.2,27.6s5,15.2,7.2,15.7s5-9.2,7.2-12.3
	s5-6.8,7.2-8.4s5-6.6,7.2-2s5,34.1,7.2,33s5-37.3,7.2-40.4s5,18.6,7.2,19.7s5-11.3,7.2-12.3s5,4.2,7.2,5.4s5,2.5,7.2,3s5-0.2,7.2,0
	s5,1.6,7.2,1.5s5,0.1,7.2-2s5-13.4,7.2-11.8s5,20.8,7.2,22.6s5-7.4,7.2-10.3s5-6,7.2-9.4s5-16.1,7.2-13.3s5,27,7.2,32s5,5.9,7.2,1
	c2.2-4.9,5-30.1,7.2-34s5,8.7,7.2,8.4s5-13.7,7.2-10.8s5,29.1,7.2,30s5-23.1,7.2-24.1s5,15.5,7.2,17.2s5-3.9,7.2-5.4s5-7.6,7.2-4.9
	s5,23.7,7.2,22.6c1-0.5,3.3-10.5,7.2-30v3.9c-3.8,22.9-6.2,34.6-7.2,34.9c-2.2,0.8-5-28.1-7.2-29.5s-5,17.7-7.2,19.7s-5-2.7-7.2-6.4
	s-5-20.4-7.2-18.2s-5,31.6-7.2,33s-5-21.4-7.2-24.1s-5,6.4-7.2,5.9s-5-11.3-7.2-9.4s-5,18.2-7.2,22.1c-2.2,3.9-5,6.8-7.2,3.9
	s-5-21.5-7.2-23.1s-5,10.7-7.2,12.3s-5-3.1-7.2-1.5s-5,11.8-7.2,12.3s-5-7.8-7.2-8.9s-5,2-7.2,2s-5-2.8-7.2-2s-5,7.2-7.2,7.4
	c-2.2,0.2-5-6.1-7.2-5.9s-5,8.9-7.2,6.9s-5-19.4-7.2-20.2s-5,15.9-7.2,15.3s-5-24.4-7.2-19.7s-5,49.8-7.2,51.2s-5-35.4-7.2-41.8
	s-5-2.2-7.2-1s-5,6-7.2,9.4c-2.2,3.4-5,13.7-7.2,13.3s-5-9.8-7.2-15.7c-2.2-5.9-5-22.9-7.2-23.6s-5,17.2-7.2,18.7s-5-9.8-7.2-8.4
	s-5,15.7-7.2,18.2c-2.2,2.5-5,1.3-7.2-1.5c-2.2-2.8-5-17.5-7.2-17.2s-5,17.3-7.2,19.2s-5-8.3-7.2-6.4s-5,18.4-7.2,19.2
	s-5-14.6-7.2-13.8s-5,17.6-7.2,19.2s-5-8.5-7.2-8.4s-5,6-7.2,9.4s-5,16.8-7.2,12.8s-5-35.1-7.2-39.4s-5,9.9-7.2,10.8s-5-3.7-7.2-4.9
	s-5-4.7-7.2-3s-5,16.3-7.2,14.8s-5-23.3-7.2-25.1s-5,10.6-7.2,12.8s-5,1.5-7.2,2c-2.2,0.4-5,3.2-7.2,1c-2.2-2.2-5-16.5-7.2-15.7
	s-5,17.8-7.2,20.7s-5,2.8-7.2-1.5s-5-28.5-7.2-27.1s-5,33.6-7.2,36.9s-5-11.4-7.2-14.8s-5-3.9-7.2-7.9s-5-21-7.2-18.7
	s-5,29.5-7.2,34s-5-0.7-7.2-4.4s-5-17.3-7.2-20.7s-5-4.6-7.2-2s-5,17.8-7.2,19.7s-5-8.3-7.2-7.4s-5,13-7.2,13.8s-5-7-7.2-8.4
	s-5-1.6-7.2-1s-5,3.6-7.2,4.9s-5,5.9-7.2,3.9s-5-13.3-7.2-16.7s-5-7.7-7.2-6.4s-5,15-7.2,15.3s-5-12.4-7.2-13.8s-5,3.5-7.2,4.4
	s-5-1-7.2,1.5s-5,13.3-7.2,14.8s-5-0.2-7.2-4.9s-5-25.4-7.2-26.6s-5,13.8-7.2,18.7s-5,11.8-7.2,13.8s-5,0.2-7.2-0.5s-5-6.2-7.2-3.9
	c-2.2,2.3-5,17.7-7.2,19.2s-5-8.6-7.2-9.4c-2.2-0.7-5,6.4-7.2,4.4s-5-18.2-7.2-17.7s-5,21-7.2,20.7s-5-22.5-7.2-22.6
	s-5,14.6-7.2,21.7s-5,25.1-7.2,25.6s-5-23-7.2-22.1s-5,25.9-7.2,27.6s-5-10.6-7.2-16.7s-5-17.5-7.2-24.1c-2.2-6.6-5-20.5-7.2-20.2
	s-5,17.8-7.2,22.6c-2.2,4.8-5,11-7.2,9.4s-5-17-7.2-20.7c-2.2-3.7-5-6.4-7.2-3.9s-5,19.5-7.2,20.7s-5-10.7-7.2-12.8
	c-2.2-2.1-5,0.7-7.2-1.5c-2.2-2.1-5-10.9-7.2-12.8s-5,0.5-7.2,0s-5-4.6-7.2-3.4s-5,10.7-7.2,11.3s-5-5.6-7.2-6.9s-5-3.3-7.2-2
	s-5,10.8-7.2,10.8s-5-9.2-7.2-10.3s-5,1.8-7.2,3s-5,6-7.2,4.9s-5-9.7-7.2-11.8s-5-2.9-7.2-2.5s-5,4.4-7.2,5.4s-5,1.7-7.2,1.5
	s-5-2.7-7.2-3s-5,2.3-7.2,1.5s-5-7-7.2-6.9s-5,6.9-7.2,7.4s-5-4.9-7.2-4.4s-5,7.9-7.2,7.4s-5-10.1-7.2-10.8s-5,5.9-7.2,5.9
	s-5-5.3-7.2-5.9s-5,1.7-7.2,2s-5-1.1-7.2-0.5s-5,4.1-7.2,4.4s-5-1.5-7.2-2s-5-1.7-7.2-1.5s-5,3.4-7.2,3s-5-5.2-7.2-5.9
	s-5,0.9-7.2,1.5s-5,2.1-7.2,2.5s-5,0.1-7.2,0s-5-1.1-7.2-1s-5,1.2-7.2,1.5s-5,0.3-7.2,0.5c-2.2,0.1-5,0.6-7.2,0.5s-5-0.6-7.2-1
	s-5-1.8-7.2-1.5s-5,3.1-7.2,3.4s-5-1.4-7.2-1.5s-5,0.9-7.2,1s-5-0.6-7.2-0.5s-5,1-7.2,1.5s-5,2.4-7.2,2s-5-4.6-7.2-4.9s-5,2.7-7.2,3
	s-5-0.6-7.2-1s-5-1.6-7.2-1.5s-5,1.7-7.2,2s-5-0.4-7.2-0.5s-5-0.2-7.2,0s-5,1.6-7.2,1.5s-5-2.2-7.2-2.5s-5,0.3-7.2,0.5s-5,1.2-7.2,1
	s-5-2.4-7.2-2.5s-5,1.7-7.2,2s-5-0.1-7.2,0s-5,1-7.2,1s-5-0.8-7.2-1s-5-0.7-7.2-0.5s-5,2-7.2,2c-2.2,0-5-1.8-7.2-2
	c-2.2-0.1-5,1.1-7.2,1s-5-1.3-7.2-1.5c-2.2-0.1-5,0.6-7.2,0.5c-2.2-0.1-5-0.9-7.2-1C36.2,239.5,33.8,239.6,30,240z"/>
<path class="st5" d="M30,239c3.8-1.5,6.2-2.4,7.2-2.5c2.2-0.2,5,0.9,7.2,1c2.2,0.1,5-0.2,7.2-0.5c2.2-0.3,5-1.3,7.2-1.5s5,0,7.2,0
	c2.2,0,5-0.3,7.2,0c2.2,0.3,5,1.6,7.2,2s5,0.7,7.2,0.5s5-1.7,7.2-2s5-0.1,7.2,0s5,0.8,7.2,1s5,0.1,7.2,0s5-0.6,7.2-0.5s5,0.8,7.2,1
	s5,0.6,7.2,0.5s5-1.3,7.2-1.5s5,0.6,7.2,0.5s5-0.9,7.2-1s5,0.9,7.2,0.5s5-3.2,7.2-3s5,4.1,7.2,4.4s5-1.7,7.2-2s5,0,7.2,0
	s5,0.1,7.2,0s5-1.2,7.2-1s5,2.5,7.2,2.5s5-2.2,7.2-2.5s5,0.9,7.2,1s5-0.5,7.2-0.5s5,0.2,7.2,0.5s5,1.6,7.2,1.5s5-1.7,7.2-2
	s5,0.3,7.2,0.5c2.2,0.1,5,0.5,7.2,0.5s5-0.4,7.2-0.5s5,1,7.2,0s5-6.5,7.2-6.9s5,4.6,7.2,4.4s5-5.5,7.2-5.4s5,5.5,7.2,5.9
	s5-2.4,7.2-3s5-1.3,7.2-0.5s5,5.4,7.2,5.9s5-1.6,7.2-2.5s5-3.4,7.2-3.4s5,2.2,7.2,3s5,2.4,7.2,2s5-5.8,7.2-4.9s5,9.9,7.2,10.8
	s5-3.5,7.2-4.4s5-1.3,7.2-1.5s5-0.2,7.2,0.5s5,3.4,7.2,3.9s5,0.3,7.2-0.5s5-4.4,7.2-4.9s5,2.1,7.2,1.5s5-5.6,7.2-5.4s5,7.4,7.2,6.4
	s5-13.1,7.2-12.8s5,12.4,7.2,14.8s5,0.3,7.2,1s5,5,7.2,3.4s5-11.6,7.2-13.8s5-3.1,7.2-1s5,14.2,7.2,14.8s5-8.5,7.2-11.3
	s5-7.8,7.2-7.4c2.2,0.4,5,7,7.2,9.8s5,10.3,7.2,8.9s5-16.5,7.2-18.2c2.2-1.7,5,6,7.2,6.9s5-0.8,7.2-1s5-1,7.2,0s5,5.3,7.2,6.9
	s5,5.3,7.2,3.4s5-14.1,7.2-15.7s5,0.9,7.2,4.4s5,12.6,7.2,19.2s5,25.6,7.2,24.6c2.2-1,5-28.5,7.2-31.5s5,13.5,7.2,11.3
	s5-20.6,7.2-25.6s5-8.8,7.2-7.9s5,14.8,7.2,13.8s5-19,7.2-20.7s5,8.9,7.2,9.8s5-1.4,7.2-3.4s5-10.3,7.2-10.3s5,9.7,7.2,10.3
	s5-6.3,7.2-5.9s5,7,7.2,8.4s5,4.4,7.2,1s5-20.8,7.2-23.6s5,1.8,7.2,4.9s5,16.8,7.2,15.7s5-19.8,7.2-22.6s5,3.9,7.2,3.4
	s5-7.2,7.2-6.4s5,10.6,7.2,11.8s5-4.8,7.2-3.4s5,10.8,7.2,12.3s5-1.8,7.2-2s5,1.1,7.2,1s5-2.7,7.2-2s5,7.3,7.2,6.9s5-7.5,7.2-9.4
	s5-3.5,7.2-3s5,9.7,7.2,6.4s5-27.2,7.2-28.5s5,16.7,7.2,19.7s5-1.3,7.2,0s5,12.6,7.2,8.4s5-37,7.2-36.9s5,30.9,7.2,37.4
	s5,4.4,7.2,5.9s5,7.1,7.2,3.9s5-23.3,7.2-25.1s5,9,7.2,13.3s5,16.2,7.2,15.3s5-19.7,7.2-21.7s5,7.5,7.2,8.9s5-0.9,7.2,0
	s5,9.4,7.2,5.9s5-29.5,7.2-29.5s5,25.3,7.2,29s5-1.9,7.2-3.9s5-9.7,7.2-9.8s5,8.6,7.2,8.9s5-8.5,7.2-6.9s5,14,7.2,17.7
	s5,9.2,7.2,6.9s5-16.5,7.2-22.1s5-18.7,7.2-15.3s5,34.9,7.2,37.9s5-14.7,7.2-17.7s5-2.9,7.2-2.5s5,6.7,7.2,5.4s5-13.5,7.2-14.3
	s5,10.5,7.2,9.4s5-14,7.2-17.2c2.2-3.2,5-4.6,7.2-4.4s5,5,7.2,5.4s5-6.2,7.2-3s5,20.6,7.2,24.6s5,2.9,7.2,2s5-7.2,7.2-8.4
	s5,0.9,7.2,0.5s5,1.7,7.2-3s5-26.9,7.2-28.1s5,15.5,7.2,20.7s5,11.6,7.2,13.8s5-0.7,7.2,0.5s5,5.1,7.2,7.4s5,8,7.2,7.9
	s5-8.2,7.2-8.9s5,4.1,7.2,4.4s5-0.5,7.2-2s5-7.3,7.2-7.9s5,4.2,7.2,3.9s5-4.2,7.2-5.4s5-1.9,7.2-2.5s5-4.3,7.2-1.5s5,21,7.2,20.2
	s5-20.6,7.2-25.6s5-5.3,7.2-7.4s5-5.4,7.2-6.4s5-2.4,7.2,0s5,15.2,7.2,16.2s5-9.4,7.2-9.4s5,8.9,7.2,9.4s5-7.7,7.2-6.4
	s5,10.9,7.2,14.8s5,13.1,7.2,10.8c1-1,3.3-9.7,7.2-26.1v22.6c-3.8,19.5-6.2,29.5-7.2,30c-2.2,1.1-5-20-7.2-22.6s-5,3.4-7.2,4.9
	s-5,7.2-7.2,5.4s-5-18.3-7.2-17.2s-5,25-7.2,24.1s-5-27.1-7.2-30s-5,10.5-7.2,10.8s-5-12.2-7.2-8.4s-5,29-7.2,34s-5,4-7.2-1
	c-2.2-4.9-5-29.2-7.2-32s-5,9.9-7.2,13.3s-5,6.4-7.2,9.4s-5,12.2-7.2,10.3c-2.2-1.8-5-21-7.2-22.6s-5,9.7-7.2,11.8s-5,1.9-7.2,2
	s-5-1.3-7.2-1.5s-5,0.4-7.2,0s-5-1.7-7.2-3s-5-6.4-7.2-5.4s-5,13.4-7.2,12.3s-5-22.8-7.2-19.7s-5,39.3-7.2,40.4s-5-28.3-7.2-33
	s-5,0.4-7.2,2s-5,5.3-7.2,8.4s-5,12.8-7.2,12.3s-5-9.3-7.2-15.7s-5-27.1-7.2-27.6s-5,23.1-7.2,24.6s-5-15.2-7.2-14.3s-5,18-7.2,20.2
	c-2.2,2.2-5-2.8-7.2-5.4s-5-13.5-7.2-12.3s-5,18.6-7.2,20.2s-5-11.6-7.2-9.4s-5,22.7-7.2,24.1s-5-13.4-7.2-14.8s-5,4.1-7.2,5.4
	s-5,2-7.2,3.4s-5,3.5-7.2,6.4c-2.2,2.9-5,17.2-7.2,12.8s-5-38-7.2-42.3s-5,13-7.2,13.8s-5-8.1-7.2-8.9s-5,2.2-7.2,3.9
	s-5,10.8-7.2,7.9s-5-26.6-7.2-27.1s-5,20.7-7.2,23.6s-5-2.3-7.2-3.9s-5-4.8-7.2-6.9s-5-9.3-7.2-6.9s-5,19.3-7.2,22.6
	c-2.2,3.3-5,2.9-7.2-0.5c-2.2-3.4-5-20.7-7.2-22.1s-5,9.7-7.2,12.3s-5,5.2-7.2,4.9s-5-0.5-7.2-6.9s-5-35.5-7.2-35.4
	s-5,30.6-7.2,35.9s-5,2.1-7.2-0.5s-5-12.5-7.2-16.7s-5-14.2-7.2-11.8s-5,23.6-7.2,27.6s-5-1.1-7.2-1.5s-5-1.4-7.2-1s-5,3.1-7.2,3.4
	s-5-1-7.2-1s-5,0.4-7.2,1s-5,4.3-7.2,3s-5-8.8-7.2-11.8s-5-9.5-7.2-8.4s-5,16.2-7.2,16.2s-5-13.9-7.2-15.7s-5,3.7-7.2,3.4
	s-5-8.9-7.2-5.4s-5,25.7-7.2,28.5s-5-5.3-7.2-9.8s-5-21.1-7.2-20.7s-5,19.5-7.2,23.6s-5,3.1-7.2,3.9s-5,1.3-7.2,1.5s-5,0.2-7.2,0
	s-5-2.5-7.2-1.5s-5,7.6-7.2,8.4s-5-0.4-7.2-3.4s-5-17.8-7.2-16.7s-5,23.6-7.2,23.6s-5-23-7.2-23.6s-5,12.6-7.2,19.7
	c-2.2,7.1-5,27-7.2,27.6s-5-25.4-7.2-24.1c-2.2,1.3-5,30.6-7.2,32.5s-5-12.7-7.2-19.7s-5-21.8-7.2-27.1s-5-10.2-7.2-8.4
	s-5,19.6-7.2,20.7s-5-11.3-7.2-13.3s-5,0.1-7.2,0s-5-2.5-7.2-1s-5,11-7.2,10.8s-5-10.6-7.2-11.8c-2.2-1.3-5,3.7-7.2,3.4
	s-5-3-7.2-4.9s-5-7.1-7.2-7.9s-5-0.2-7.2,2.5s-5,15-7.2,15.3s-5-12-7.2-13.8s-5-0.4-7.2,2s-5,13.3-7.2,13.8s-5-8.8-7.2-10.3
	s-5,1.5-7.2,0s-5-9.1-7.2-9.8s-5,4.8-7.2,4.9s-5-5-7.2-4.4s-5,7.5-7.2,8.4s-5-2.2-7.2-2.5s-5,0.5-7.2,1s-5,3-7.2,2.5s-5-5.5-7.2-5.9
	s-5,3-7.2,3.4s-5-1.2-7.2-0.5s-5,6.1-7.2,5.4s-5-9-7.2-9.8s-5,3.8-7.2,3.9s-5-2.7-7.2-3s-5,1.1-7.2,1s-5-1.8-7.2-1.5s-5,3.7-7.2,3.4
	s-5-4.3-7.2-4.9s-5-0.3-7.2,0.5s-5,5.1-7.2,4.9s-5-5.4-7.2-5.9s-5,2-7.2,2.5s-5,0.3-7.2,0.5s-5,1-7.2,1s-5-1.2-7.2-1s-5,2.2-7.2,2.5
	s-5-0.5-7.2-0.5c-2.2,0-5,0.4-7.2,0.5s-5,0.2-7.2,0s-5-1.5-7.2-1.5s-5,1-7.2,1.5s-5,1.7-7.2,1.5s-5-2.7-7.2-3s-5,1.2-7.2,1.5
	s-5,0.4-7.2,0.5s-5,0.3-7.2,0s-5-2-7.2-2s-5,1.5-7.2,2s-5,1.5-7.2,1s-5-4.4-7.2-4.4s-5,3.6-7.2,3.9s-5-1.3-7.2-1.5s-5-0.4-7.2,0
	s-5,2.3-7.2,2.5s-5-1.2-7.2-1.5s-5-0.3-7.2-0.5s-5-0.8-7.2-1s-5-0.7-7.2-0.5s-5,2-7.2,2s-5-1.8-7.2-2s-5,0.8-7.2,1s-5,0.1-7.2,0
	s-5-0.6-7.2-0.5s-5,0.8-7.2,1c-2.2,0.1-5,0-7.2,0c-2.2,0-5,0.1-7.2,0s-5-0.5-7.2-0.5c-2.2,0-5,0.4-7.2,0.5c-2.2,0.1-5-0.2-7.2,0
	c-1,0.1-3.3,0.6-7.2,1.5V239z"/>
<path class="st0" d="M30,239c3.8-1.5,6.2-2.4,7.2-2.5c2.2-0.2,5,0.9,7.2,1c2.2,0.1,5-0.2,7.2-0.5c2.2-0.3,5-1.3,7.2-1.5s5,0,7.2,0
	c2.2,0,5-0.3,7.2,0c2.2,0.3,5,1.6,7.2,2s5,0.7,7.2,0.5s5-1.7,7.2-2s5-0.1,7.2,0s5,0.8,7.2,1s5,0.1,7.2,0s5-0.6,7.2-0.5s5,0.8,7.2,1
	s5,0.6,7.2,0.5s5-1.3,7.2-1.5s5,0.6,7.2,0.5s5-0.9,7.2-1s5,0.9,7.2,0.5s5-3.2,7.2-3s5,4.1,7.2,4.4s5-1.7,7.2-2s5,0,7.2,0
	s5,0.1,7.2,0s5-1.2,7.2-1s5,2.5,7.2,2.5s5-2.2,7.2-2.5s5,0.9,7.2,1s5-0.5,7.2-0.5s5,0.2,7.2,0.5s5,1.6,7.2,1.5s5-1.7,7.2-2
	s5,0.3,7.2,0.5c2.2,0.1,5,0.5,7.2,0.5s5-0.4,7.2-0.5s5,1,7.2,0s5-6.5,7.2-6.9s5,4.6,7.2,4.4s5-5.5,7.2-5.4s5,5.5,7.2,5.9
	s5-2.4,7.2-3s5-1.3,7.2-0.5s5,5.4,7.2,5.9s5-1.6,7.2-2.5s5-3.4,7.2-3.4s5,2.2,7.2,3s5,2.4,7.2,2s5-5.8,7.2-4.9s5,9.9,7.2,10.8
	s5-3.5,7.2-4.4s5-1.3,7.2-1.5s5-0.2,7.2,0.5s5,3.4,7.2,3.9s5,0.3,7.2-0.5s5-4.4,7.2-4.9s5,2.1,7.2,1.5s5-5.6,7.2-5.4s5,7.4,7.2,6.4
	s5-13.1,7.2-12.8s5,12.4,7.2,14.8s5,0.3,7.2,1s5,5,7.2,3.4s5-11.6,7.2-13.8s5-3.1,7.2-1s5,14.2,7.2,14.8s5-8.4,7.2-11.3
	s5-8.7,7.2-8.4c2.2,0.4,5,7.9,7.2,10.8s5,10.6,7.2,8.9s5-18.3,7.2-20.2c2.2-1.8,5,6.8,7.2,7.9s5-0.2,7.2-1s5-4.2,7.2-3.9
	s5,3.8,7.2,5.9s5,9.5,7.2,8.4s5-13.5,7.2-15.7s5-1.7,7.2,0.5s5,7.7,7.2,14.3s5,30,7.2,29.5s5-28.7,7.2-32.5s5,9.7,7.2,7.4
	s5-17.9,7.2-22.6s5-8.6,7.2-8.9s5,7.5,7.2,6.9s5-9.5,7.2-10.8s5,2.2,7.2,2s5-0.5,7.2-3.4s5-15.1,7.2-16.2s5,5.3,7.2,8.4
	s5,10.4,7.2,11.8s5-1.9,7.2-2.5s5,2,7.2-1s5-17.2,7.2-18.7s5,6.5,7.2,8.9s5,8.8,7.2,6.9s5-17.3,7.2-19.7s5,3.7,7.2,3.4
	s5-5.6,7.2-5.4s5,5.3,7.2,6.9s5,1.5,7.2,3.4s5,8.2,7.2,9.4s5-1.5,7.2-2s5-1.4,7.2-1s5,4.4,7.2,3.9s5-5.8,7.2-6.9s5-0.7,7.2-0.5
	s5,2.3,7.2,2s5-1.7,7.2-4.4s5-14.2,7.2-13.8s5,16.1,7.2,16.7s5-13.3,7.2-12.8s5,20.7,7.2,16.2s5-45.4,7.2-45.8s5,35,7.2,43.3
	s5,13,7.2,11.8s5-14.1,7.2-19.7s5-17.2,7.2-17.2s5,13.7,7.2,17.2s5,4.4,7.2,6.4s5,8.1,7.2,6.9s5-14.3,7.2-14.8s5,9.4,7.2,11.8
	s5,7.6,7.2,3.9s5-28.9,7.2-28.5s5,26.2,7.2,31s5,3.6,7.2,1s5-17.2,7.2-18.7s5,8,7.2,8.9s5-2.2,7.2-3s5-5.8,7.2-2s5,28.7,7.2,27.6
	s5-27.9,7.2-34.9s5-16.4,7.2-12.3s5,36.8,7.2,39.9s5-17.7,7.2-19.7s5,4.3,7.2,6.4s5,10,7.2,7.4s5-23.2,7.2-25.1s5,11,7.2,12.3
	s5-2.7,7.2-3.4c2.2-0.7,5-0.6,7.2-1.5s5-2.7,7.2-4.4s5-10.1,7.2-6.9s5,24,7.2,28.5s5,2.6,7.2,2s5-4.6,7.2-6.4s5-4,7.2-5.4
	s5,0.1,7.2-3.9s5-22.8,7.2-23.1s5,16.5,7.2,20.7s5,5.2,7.2,6.9s5,1.9,7.2,4.4s5,10.9,7.2,12.3s5-2.7,7.2-3s5,1.2,7.2,1
	s5-2.4,7.2-2.5s5,1.2,7.2,2s5,4.6,7.2,3s5-11.6,7.2-13.8s5-1.1,7.2-0.5s5,4.3,7.2,4.4s5-5.7,7.2-3.4s5,20.1,7.2,18.2
	s5-24.5,7.2-30.5s5-6.1,7.2-9.4s5-11.2,7.2-12.3s5,0.6,7.2,4.9s5,21.2,7.2,24.1s5-4.4,7.2-4.4s5,5.3,7.2,4.4s5-12.3,7.2-10.3
	s5,20.8,7.2,23.6s5-2.5,7.2-4.9c1-1.1,3.3-4.9,7.2-11.3v8.9c-3.8,16.4-6.2,25.1-7.2,26.1c-2.2,2.3-5-7-7.2-10.8s-5-13.5-7.2-14.8
	s-5,6.8-7.2,6.4s-5-9.4-7.2-9.4s-5,10.4-7.2,9.4s-5-13.8-7.2-16.2s-5-1-7.2,0s-5,4.3-7.2,6.4s-5,2.4-7.2,7.4s-5,24.8-7.2,25.6
	s-5-17.4-7.2-20.2s-5,0.9-7.2,1.5s-5,1.3-7.2,2.5s-5,5.2-7.2,5.4s-5-4.5-7.2-3.9s-5,6.4-7.2,7.9s-5,2.3-7.2,2s-5-5.1-7.2-4.4
	s-5,8.7-7.2,8.9s-5-5.6-7.2-7.9s-5-6.2-7.2-7.4s-5,1.6-7.2-0.5s-5-8.6-7.2-13.8s-5-21.8-7.2-20.7s-5,23.4-7.2,28.1s-5,2.6-7.2,3
	s-5-1.7-7.2-0.5s-5,7.4-7.2,8.4s-5,2-7.2-2s-5-21.4-7.2-24.6s-5,3.3-7.2,3s-5-5.3-7.2-5.4s-5,1.2-7.2,4.4c-2.2,3.2-5,16-7.2,17.2
	s-5-10.1-7.2-9.4s-5,12.9-7.2,14.3s-5-5-7.2-5.4s-5-0.6-7.2,2.5s-5,20.7-7.2,17.7s-5-34.5-7.2-37.9s-5,9.6-7.2,15.3
	s-5,19.9-7.2,22.1s-5-3.2-7.2-6.9s-5-16.1-7.2-17.7s-5,7.2-7.2,6.9s-5-9-7.2-8.9s-5,7.8-7.2,9.8s-5,7.7-7.2,3.9s-5-29.1-7.2-29
	s-5,26-7.2,29.5s-5-5-7.2-5.9s-5,1.3-7.2,0s-5-10.8-7.2-8.9s-5,20.7-7.2,21.7s-5-11-7.2-15.3s-5-15.1-7.2-13.3s-5,21.9-7.2,25.1
	s-5-2.5-7.2-3.9s-5,0.6-7.2-5.9s-5-37.3-7.2-37.4s-5,32.6-7.2,36.9s-5-7.1-7.2-8.4s-5,3-7.2,0s-5-21-7.2-19.7s-5,25.2-7.2,28.5
	s-5-5.9-7.2-6.4s-5,1.1-7.2,3s-5,9-7.2,9.4s-5-6.2-7.2-6.9s-5,1.8-7.2,2s-5-1.1-7.2-1s-5,3.5-7.2,2s-5-11-7.2-12.3s-5,4.7-7.2,3.4
	s-5-11-7.2-11.8s-5,6-7.2,6.4s-5-6.3-7.2-3.4s-5,21.6-7.2,22.6s-5-12.6-7.2-15.7s-5-7.7-7.2-4.9s-5,20.2-7.2,23.6s-5,0.4-7.2-1
	s-5-8-7.2-8.4s-5,6.6-7.2,5.9s-5-10.3-7.2-10.3s-5,8.3-7.2,10.3s-5,4.4-7.2,3.4s-5-11.5-7.2-9.8s-5,19.6-7.2,20.7s-5-12.9-7.2-13.8
	s-5,2.9-7.2,7.9s-5,23.5-7.2,25.6s-5-14.3-7.2-11.3s-5,30.5-7.2,31.5c-2.2,1-5-18-7.2-24.6s-5-15.7-7.2-19.2s-5-6.1-7.2-4.4
	s-5,13.9-7.2,15.7s-5-1.9-7.2-3.4s-5-5.9-7.2-6.9s-5-0.1-7.2,0s-5,1.9-7.2,1s-5-8.6-7.2-6.9c-2.2,1.7-5,16.8-7.2,18.2
	s-5-6.1-7.2-8.9s-5-9.5-7.2-9.8s-5,4.6-7.2,7.4s-5,11.8-7.2,11.3s-5-12.7-7.2-14.8s-5-1.2-7.2,1s-5,12.2-7.2,13.8s-5-2.8-7.2-3.4
	s-5,1.4-7.2-1s-5-14.5-7.2-14.8s-5,11.8-7.2,12.8s-5-6.3-7.2-6.4s-5,4.8-7.2,5.4s-5-2-7.2-1.5s-5,4.1-7.2,4.9s-5,1-7.2,0.5
	s-5-3.3-7.2-3.9s-5-0.6-7.2-0.5s-5,0.6-7.2,1.5s-5,5.4-7.2,4.4s-5-9.9-7.2-10.8s-5,4.5-7.2,4.9s-5-1.2-7.2-2s-5-3-7.2-3
	s-5,2.6-7.2,3.4s-5,3-7.2,2.5s-5-5.1-7.2-5.9s-5,0-7.2,0.5s-5,3.4-7.2,3s-5-5.8-7.2-5.9s-5,5.3-7.2,5.4s-5-4.8-7.2-4.4
	s-5,5.9-7.2,6.9s-5-0.1-7.2,0s-5,0.5-7.2,0.5s-5-0.3-7.2-0.5c-2.2-0.1-5-0.7-7.2-0.5s-5,1.9-7.2,2s-5-1.2-7.2-1.5s-5-0.5-7.2-0.5
	s-5,0.6-7.2,0.5s-5-1.2-7.2-1s-5,2.5-7.2,2.5s-5-2.2-7.2-2.5s-5,0.8-7.2,1s-5,0-7.2,0s-5-0.3-7.2,0s-5,2.3-7.2,2s-5-4.2-7.2-4.4
	s-5,2.6-7.2,3s-5-0.6-7.2-0.5s-5,0.9-7.2,1s-5-0.6-7.2-0.5s-5,1.3-7.2,1.5s-5-0.3-7.2-0.5s-5-0.9-7.2-1s-5,0.4-7.2,0.5s-5,0.1-7.2,0
	s-5-0.8-7.2-1s-5-0.3-7.2,0s-5,1.7-7.2,2s-5-0.1-7.2-0.5s-5-1.7-7.2-2c-2.2-0.3-5,0-7.2,0c-2.2,0-5-0.2-7.2,0s-5,1.2-7.2,1.5
	c-2.2,0.3-5,0.6-7.2,0.5c-2.2-0.1-5-1.2-7.2-1C36.2,236.7,33.8,237.5,30,239z"/>
<path class="st1" d="M30,239c3.8-1.5,6.2-2.4,7.2-2.5c2.2-0.2,5,0.9,7.2,1c2.2,0.1,5-0.2,7.2-0.5c2.2-0.3,5-1.3,7.2-1.5s5,0,7.2,0
	c2.2,0,5-0.3,7.2,0c2.2,0.3,5,1.6,7.2,2s5,0.7,7.2,0.5s5-1.7,7.2-2s5-0.1,7.2,0s5,0.8,7.2,1s5,0.1,7.2,0s5-0.6,7.2-0.5s5,0.8,7.2,1
	s5,0.6,7.2,0.5s5-1.3,7.2-1.5s5,0.6,7.2,0.5s5-0.9,7.2-1s5,0.9,7.2,0.5s5-3.2,7.2-3s5,4.1,7.2,4.4s5-1.7,7.2-2s5,0,7.2,0
	s5,0.1,7.2,0s5-1.2,7.2-1s5,2.5,7.2,2.5s5-2.2,7.2-2.5s5,0.9,7.2,1s5-0.5,7.2-0.5s5,0.2,7.2,0.5s5,1.6,7.2,1.5s5-1.7,7.2-2
	s5,0.3,7.2,0.5c2.2,0.1,5,0.5,7.2,0.5s5-0.4,7.2-0.5s5,1,7.2,0s5-6.5,7.2-6.9s5,4.6,7.2,4.4s5-5.5,7.2-5.4s5,5.5,7.2,5.9
	s5-2.3,7.2-3s5-2.3,7.2-1.5s5,6.2,7.2,6.9s5-1.6,7.2-2.5s5-3.4,7.2-3.4s5,2.2,7.2,3s5,2.4,7.2,2s5-5.8,7.2-4.9s5,10.3,7.2,10.8
	s5-6.5,7.2-7.4s5,1.2,7.2,1.5s5,0.1,7.2,0.5s5,1.5,7.2,2s5,2,7.2,1.5s5-4.1,7.2-4.9s5,0.1,7.2-0.5s5-3.6,7.2-3.4s5,6.4,7.2,4.4
	s5-17.7,7.2-17.7s5,14.9,7.2,17.7s5,0.3,7.2,1s5,5,7.2,3.4s5-11.6,7.2-13.8s5-2.9,7.2-1s5,13.3,7.2,13.8s5-7.4,7.2-10.3
	s5-7.8,7.2-9.4c2.2-1.6,5-3.3,7.2-1s5,20.5,7.2,16.7s5-38.1,7.2-41.8c2.2-3.8,5,14.1,7.2,16.7s5,1.1,7.2,1s5-2.6,7.2-2
	s5,4.5,7.2,5.9s5,2.2,7.2,3.4s5,3.8,7.2,4.9s5,0.5,7.2,2.5s5,11.1,7.2,10.3s5-10.4,7.2-15.7s5-18.3,7.2-19.7s5,13.2,7.2,10.3
	s5-24.2,7.2-29.5s5-4.9,7.2-5.9s5-0.2,7.2-1s5-4.8,7.2-3.9s5,8.7,7.2,9.8s5,3.7,7.2-2.5s5-38.4,7.2-38.9s5,29.1,7.2,35.9
	s5,8.6,7.2,9.8s5-3.3,7.2-1.5s5,13.9,7.2,13.8s5-12.6,7.2-14.8s5-0.4,7.2,0s5,4.3,7.2,3s5-11.1,7.2-11.8s5,7.1,7.2,7.4
	s5-4.7,7.2-5.4s5-1.2,7.2,1s5,11.4,7.2,13.3s5,1.4,7.2-0.5s5-10.3,7.2-11.8s5-0.5,7.2,2s5,15.1,7.2,14.8s5-14.7,7.2-16.7
	s5,1.7,7.2,3.4s5,7.8,7.2,7.9s5-5.2,7.2-7.4s5-7.2,7.2-6.9s5,8.6,7.2,8.9s5-6.8,7.2-6.9s5,11,7.2,6.4s5-36.4,7.2-36.9
	s5,27.1,7.2,33.5s5,10.5,7.2,8.9s5-14.7,7.2-19.7s5-13.9,7.2-13.3s5,11.9,7.2,17.2s5,16.4,7.2,18.2s5-2.2,7.2-5.9s5-17.2,7.2-18.7
	s5,4.4,7.2,8.9s5,21.1,7.2,20.7s5-22.7,7.2-23.6s5,14.2,7.2,17.2s5,3.1,7.2,3s5-2.8,7.2-3.9s5-3.9,7.2-3.9s5,4.7,7.2,3.9
	s5-11.5,7.2-8.9s5,26.5,7.2,26.6s5-19.6,7.2-26.1s5-18.7,7.2-17.2s5,26.1,7.2,27.1s5-18.7,7.2-20.7s5,4.1,7.2,7.4s5,17.7,7.2,14.3
	s5-35.3,7.2-36.9s5,22.8,7.2,26.1s5-3.5,7.2-4.4c2.2-0.9,5-2.2,7.2-1.5s5,9.1,7.2,6.4s5-27.3,7.2-24.6s5,38.3,7.2,42.3
	s5-14.8,7.2-15.7s5,9.9,7.2,9.4s5-11.3,7.2-13.3s5,3.2,7.2,0s5-22,7.2-21.2s5,23.5,7.2,26.6s5-6.3,7.2-5.9s5,7.8,7.2,8.4
	s5-5.2,7.2-4.4s5,6.9,7.2,9.8s5,8.6,7.2,9.8s5-0.4,7.2-1.5s5-5.9,7.2-5.9s5,8,7.2,5.9s5-17.7,7.2-19.7s5,4.9,7.2,6.4s5,1.7,7.2,3.4
	s5,7.6,7.2,8.4s5-1,7.2-3.4s5-9,7.2-12.8s5-8.3,7.2-12.3s5-13.6,7.2-14.3s5,5.8,7.2,9.8s5,15,7.2,17.2s5-3.8,7.2-2.5
	s5,11.8,7.2,11.3s5-16.4,7.2-14.3s5,27.8,7.2,28.5s5-19.6,7.2-23.6c1-1.8,3.3-3,7.2-3.4v14.8c-3.8,6.5-6.2,10.2-7.2,11.3
	c-2.2,2.4-5,7.7-7.2,4.9s-5-21.6-7.2-23.6s-5,9.4-7.2,10.3s-5-4.4-7.2-4.4s-5,7.4-7.2,4.4s-5-19.8-7.2-24.1s-5-6-7.2-4.9
	s-5,9.1-7.2,12.3s-5,3.4-7.2,9.4s-5,28.7-7.2,30.5s-5-16-7.2-18.2s-5,3.6-7.2,3.4s-5-3.8-7.2-4.4s-5-1.6-7.2,0.5s-5,12.2-7.2,13.8
	s-5-2.2-7.2-3s-5-2-7.2-2s-5,2.2-7.2,2.5s-5-1.3-7.2-1s-5,4.4-7.2,3s-5-9.8-7.2-12.3s-5-2.7-7.2-4.4s-5-2.8-7.2-6.9s-5-21-7.2-20.7
	s-5,19.1-7.2,23.1s-5,2.5-7.2,3.9s-5,3.6-7.2,5.4s-5,5.7-7.2,6.4s-5,2.6-7.2-2s-5-25.3-7.2-28.5s-5,5.2-7.2,6.9s-5,3.5-7.2,4.4
	s-5,0.7-7.2,1.5c-2.2,0.7-5,4.8-7.2,3.4s-5-14.2-7.2-12.3s-5,22.4-7.2,25.1s-5-5.3-7.2-7.4s-5-8.4-7.2-6.4s-5,22.7-7.2,19.7
	s-5-35.7-7.2-39.9s-5,5.2-7.2,12.3s-5,33.8-7.2,34.9s-5-23.7-7.2-27.6s-5,1.2-7.2,2s-5,3.8-7.2,3s-5-10.3-7.2-8.9s-5,16-7.2,18.7
	s-5,3.8-7.2-1s-5-30.6-7.2-31s-5,24.9-7.2,28.5s-5-1.6-7.2-3.9s-5-12.3-7.2-11.8s-5,13.6-7.2,14.8s-5-4.9-7.2-6.9s-5-2.9-7.2-6.4
	s-5-17.2-7.2-17.2s-5,11.7-7.2,17.2s-5,18.5-7.2,19.7s-5-3.5-7.2-11.8s-5-43.7-7.2-43.3s-5,41.3-7.2,45.8s-5-15.7-7.2-16.2
	s-5,13.4-7.2,12.8s-5-16.3-7.2-16.7s-5,11-7.2,13.8s-5,4.1-7.2,4.4s-5-1.7-7.2-2s-5-0.6-7.2,0.5s-5,6.4-7.2,6.9s-5-3.5-7.2-3.9
	s-5,0.5-7.2,1s-5,3.1-7.2,2s-5-7.4-7.2-9.4s-5-1.9-7.2-3.4s-5-6.7-7.2-6.9s-5,5.1-7.2,5.4s-5-5.9-7.2-3.4s-5,17.8-7.2,19.7
	s-5-4.5-7.2-6.9s-5-10.3-7.2-8.9s-5,15.7-7.2,18.7s-5,0.5-7.2,1s-5,3.9-7.2,2.5s-5-8.8-7.2-11.8s-5-9.5-7.2-8.4s-5,13.3-7.2,16.2
	s-5,3.2-7.2,3.4s-5-3.3-7.2-2s-5,10.2-7.2,10.8s-5-7.2-7.2-6.9s-5,4.1-7.2,8.9s-5,20.4-7.2,22.6s-5-11.1-7.2-7.4s-5,32-7.2,32.5
	s-5-23-7.2-29.5s-5-12.1-7.2-14.3s-5-2.8-7.2-0.5s-5,14.6-7.2,15.7s-5-6.2-7.2-8.4s-5-5.6-7.2-5.9s-5,3.2-7.2,3.9s-5,2-7.2,1
	s-5-9.7-7.2-7.9c-2.2,1.8-5,18.5-7.2,20.2s-5-5.9-7.2-8.9s-5-10.5-7.2-10.8s-5,5.4-7.2,8.4s-5,11.8-7.2,11.3s-5-12.7-7.2-14.8
	s-5-1.2-7.2,1s-5,12.2-7.2,13.8s-5-2.8-7.2-3.4s-5,1.4-7.2-1s-5-14.5-7.2-14.8s-5,11.8-7.2,12.8s-5-6.3-7.2-6.4s-5,4.8-7.2,5.4
	s-5-2-7.2-1.5s-5,4.1-7.2,4.9s-5,1-7.2,0.5s-5-3.3-7.2-3.9s-5-0.6-7.2-0.5s-5,0.6-7.2,1.5s-5,5.4-7.2,4.4s-5-9.9-7.2-10.8
	s-5,4.5-7.2,4.9s-5-1.2-7.2-2s-5-3-7.2-3s-5,2.6-7.2,3.4s-5,3-7.2,2.5s-5-5.1-7.2-5.9s-5,0-7.2,0.5s-5,3.4-7.2,3s-5-5.8-7.2-5.9
	s-5,5.3-7.2,5.4s-5-4.8-7.2-4.4s-5,5.9-7.2,6.9s-5-0.1-7.2,0s-5,0.5-7.2,0.5s-5-0.3-7.2-0.5c-2.2-0.1-5-0.7-7.2-0.5s-5,1.9-7.2,2
	s-5-1.2-7.2-1.5s-5-0.5-7.2-0.5s-5,0.6-7.2,0.5s-5-1.2-7.2-1s-5,2.5-7.2,2.5s-5-2.2-7.2-2.5s-5,0.8-7.2,1s-5,0-7.2,0s-5-0.3-7.2,0
	s-5,2.3-7.2,2s-5-4.2-7.2-4.4s-5,2.6-7.2,3s-5-0.6-7.2-0.5s-5,0.9-7.2,1s-5-0.6-7.2-0.5s-5,1.3-7.2,1.5s-5-0.3-7.2-0.5s-5-0.9-7.2-1
	s-5,0.4-7.2,0.5s-5,0.1-7.2,0s-5-0.8-7.2-1s-5-0.3-7.2,0s-5,1.7-7.2,2s-5-0.1-7.2-0.5s-5-1.7-7.2-2c-2.2-0.3-5,0-7.2,0
	c-2.2,0-5-0.2-7.2,0s-5,1.2-7.2,1.5c-2.2,0.3-5,0.6-7.2,0.5c-2.2-0.1-5-1.2-7.2-1C36.2,236.7,33.8,237.5,30,239z"/>
<path class="st2" d="M30,239c3.8-1.5,6.2-2.4,7.2-2.5c2.2-0.2,5,0.9,7.2,1c2.2,0.1,5-0.2,7.2-0.5c2.2-0.3,5-1.3,7.2-1.5s5,0,7.2,0
	c2.2,0,5-0.3,7.2,0c2.2,0.3,5,1.6,7.2,2s5,0.7,7.2,0.5s5-1.7,7.2-2s5-0.1,7.2,0s5,0.8,7.2,1s5,0.1,7.2,0s5-0.6,7.2-0.5s5,0.8,7.2,1
	s5,0.6,7.2,0.5s5-1.3,7.2-1.5s5,0.6,7.2,0.5s5-0.9,7.2-1s5,0.9,7.2,0.5s5-3.2,7.2-3s5,4.1,7.2,4.4s5-1.7,7.2-2s5,0,7.2,0
	s5,0.1,7.2,0s5-1.2,7.2-1s5,2.5,7.2,2.5s5-2.2,7.2-2.5s5,0.9,7.2,1s5-0.5,7.2-0.5s5,0.2,7.2,0.5s5,1.6,7.2,1.5s5-1.7,7.2-2
	s5,0.5,7.2,0.5c2.2,0,5-0.5,7.2-0.5s5,0.6,7.2,0.5s5,0.3,7.2-1s5-7.4,7.2-7.9s5,4.4,7.2,4.4s5-4.8,7.2-4.4s5,6.6,7.2,6.9
	s5-4.3,7.2-4.9s5-0.3,7.2,0.5s5,4.7,7.2,4.9s5-2.6,7.2-3.4s5-2.7,7.2-2.5s5,3.2,7.2,3.9s5,1.7,7.2,1s5-5.8,7.2-5.9s5,4.7,7.2,4.9
	s5-2.6,7.2-3.4s5-2.6,7.2-2.5s5,2.9,7.2,3.4s5-0.2,7.2,0s5,1.7,7.2,1.5s5-2,7.2-3s5-3.1,7.2-3.4s5,1.3,7.2,1.5s5,4.5,7.2-0.5
	s5-33.1,7.2-32.5s5,31.4,7.2,36.4s5-2.9,7.2-3s5,5.6,7.2,2.5s5-21.3,7.2-23.6s5,5.1,7.2,7.9s5,10.2,7.2,10.8s5-3.4,7.2-6.4
	s5-11.4,7.2-13.3c2.2-1.8,5-1.2,7.2,1s5,19.9,7.2,13.8s5-47.9,7.2-54.6c2.2-6.7,5,6.9,7.2,9.8s5,8.7,7.2,9.8s5,1.3,7.2-2
	s5-19.2,7.2-19.7s5,14.5,7.2,16.2s5-2.8,7.2-4.9s5-8.3,7.2-9.4s5,7.7,7.2,2.5s5-34.3,7.2-37.4c2.2-3.1,5,15.3,7.2,16.7
	c2.2,1.4,5-2.9,7.2-7.4s5-20.1,7.2-22.6s5,3.5,7.2,5.9s5,9.1,7.2,9.8s5-4.5,7.2-4.9c2.2-0.4,5-0.6,7.2,2c2.2,2.6,5,16.9,7.2,15.3
	s5-27.7,7.2-26.1s5,33.4,7.2,36.9s5-14,7.2-13.8s5,10,7.2,15.3s5,18.9,7.2,19.7s5-12.1,7.2-14.8s5-3,7.2-3s5,4.6,7.2,3
	s5-13,7.2-13.8s5,10.1,7.2,8.4s5-18.9,7.2-20.2s5,7.9,7.2,11.8s5,13.8,7.2,14.3s5-7,7.2-11.3s5-16.1,7.2-17.7c2.2-1.6,5,5.1,7.2,6.9
	c2.2,1.8,5,5.4,7.2,4.9s5-8.1,7.2-7.9s5,5.3,7.2,9.4c2.2,4.1,5,16.8,7.2,17.7s5-10.2,7.2-11.3s5,2.2,7.2,3.9s5,6.8,7.2,7.9
	s5,0.9,7.2-1s5-6.4,7.2-11.3s5-22.1,7.2-21.2s5,21.8,7.2,27.6s5,15,7.2,10.8s5-32.9,7.2-38.4s5-0.1,7.2,1.5c2.2,1.6,5,3.9,7.2,9.4
	s5,23.7,7.2,27.1s5-0.5,7.2-4.9s5-24.2,7.2-24.6c2.2-0.4,5,16.9,7.2,21.7s5,12.5,7.2,9.8s5-25,7.2-27.6s5,6,7.2,10.3
	s5,17.8,7.2,18.7s5-10.6,7.2-12.8s5-5.1,7.2-2s5,24.3,7.2,22.6s5-32.4,7.2-33.5c2.2-1,5,24.9,7.2,26.6s5-9.6,7.2-15.3s5-25,7.2-22.1
	c2.2,2.8,5,38.6,7.2,40.9s5-21.4,7.2-25.6s5-5.1,7.2-2.5s5,21.5,7.2,20.2s5-27.6,7.2-29c2.2-1.5,5,15.8,7.2,19.2s5,1.7,7.2,3.4
	c2.2,1.8,5,10.3,7.2,8.4s5-15,7.2-21.2s5-23.5,7.2-19.7c2.2,3.8,5,41.9,7.2,45.3s5-22.1,7.2-22.6s5,19,7.2,19.2s5-16.8,7.2-18.2
	s5,10.6,7.2,8.9s5-20.3,7.2-20.2s5,20.2,7.2,20.7s5-20,7.2-17.7s5,30.6,7.2,33s5-15.2,7.2-17.2s5,2.2,7.2,3.9s5,6.9,7.2,7.9
	s5-0.4,7.2-1.5s5-8.4,7.2-5.9s5,22.9,7.2,22.6s5-21.6,7.2-24.6s5,3.8,7.2,4.4s5-1.7,7.2-0.5s5,7.9,7.2,8.4s5-2.5,7.2-5.4
	s5-8.4,7.2-13.8s5-18.3,7.2-22.1s5-5.1,7.2-3.4s5,11,7.2,14.8c2.2,3.8,5,7.8,7.2,10.3s5,7.3,7.2,6.4s5-10.1,7.2-12.3s5-6.8,7.2-2.5
	s5,31.1,7.2,31.5s5-26.4,7.2-28.5c1-1,3.3,3.8,7.2,14.3v12.8c-3.8,0.5-6.2,1.6-7.2,3.4c-2.2,4.1-5,24.4-7.2,23.6s-5-26.4-7.2-28.5
	s-5,13.8-7.2,14.3s-5-10-7.2-11.3s-5,4.7-7.2,2.5s-5-13.2-7.2-17.2s-5-10.5-7.2-9.8s-5,10.3-7.2,14.3s-5,8.5-7.2,12.3
	s-5,10.4-7.2,12.8s-5,4.2-7.2,3.4s-5-6.6-7.2-8.4s-5-2-7.2-3.4s-5-8.4-7.2-6.4s-5,17.6-7.2,19.7s-5-5.9-7.2-5.9s-5,4.8-7.2,5.9
	s-5,2.7-7.2,1.5s-5-6.9-7.2-9.8s-5-9-7.2-9.8s-5,5-7.2,4.4s-5-8-7.2-8.4s-5,9-7.2,5.9s-5-25.8-7.2-26.6s-5,18-7.2,21.2s-5-2-7.2,0
	s-5,12.7-7.2,13.3s-5-10.3-7.2-9.4s-5,19.7-7.2,15.7s-5-39.7-7.2-42.3s-5,21.9-7.2,24.6s-5-5.7-7.2-6.4s-5,0.6-7.2,1.5
	c-2.2,0.9-5,7.7-7.2,4.4s-5-27.7-7.2-26.1s-5,33.5-7.2,36.9s-5-11-7.2-14.3s-5-9.4-7.2-7.4s-5,21.6-7.2,20.7s-5-25.6-7.2-27.1
	s-5,10.7-7.2,17.2s-5,26.2-7.2,26.1s-5-23.9-7.2-26.6s-5,8.1-7.2,8.9s-5-3.9-7.2-3.9s-5,2.8-7.2,3.9s-5,3.8-7.2,3.9s-5,0.1-7.2-3
	s-5-18.2-7.2-17.2s-5,23.2-7.2,23.6s-5-16.2-7.2-20.7s-5-10.3-7.2-8.9s-5,15-7.2,18.7s-5,7.8-7.2,5.9s-5-12.9-7.2-18.2
	s-5-16.6-7.2-17.2s-5,8.3-7.2,13.3s-5,18.1-7.2,19.7s-5-2.5-7.2-8.9s-5-34-7.2-33.5s-5,32.3-7.2,36.9s-5-6.5-7.2-6.4s-5,7.2-7.2,6.9
	s-5-8.6-7.2-8.9s-5,4.7-7.2,6.9s-5,7.5-7.2,7.4s-5-6.2-7.2-7.9s-5-5.4-7.2-3.4s-5,16.4-7.2,16.7s-5-12.3-7.2-14.8s-5-3.4-7.2-2
	s-5,10-7.2,11.8s-5,2.4-7.2,0.5s-5-11.1-7.2-13.3s-5-1.6-7.2-1s-5,5.7-7.2,5.4s-5-8-7.2-7.4s-5,10.5-7.2,11.8s-5-2.5-7.2-3
	s-5-2.2-7.2,0s-5,14.6-7.2,14.8s-5-11.9-7.2-13.8s-5,2.7-7.2,1.5s-5-3-7.2-9.8s-5-36.4-7.2-35.9s-5,32.7-7.2,38.9s-5,3.6-7.2,2.5
	s-5-9-7.2-9.8s-5,3.2-7.2,3.9s-5,0-7.2,1s-5,0.6-7.2,5.9s-5,26.7-7.2,29.5s-5-11.7-7.2-10.3s-5,14.4-7.2,19.7s-5,14.9-7.2,15.7
	s-5-8.4-7.2-10.3s-5-1.4-7.2-2.5s-5-3.7-7.2-4.9s-5-2-7.2-3.4s-5-5.3-7.2-5.9s-5,1.8-7.2,2s-5,1.7-7.2-1s-5-20.5-7.2-16.7
	c-2.2,3.8-5,38.1-7.2,41.8s-5-14.4-7.2-16.7s-5-0.6-7.2,1s-5,6.4-7.2,9.4s-5,10.9-7.2,10.3s-5-11.9-7.2-13.8s-5-1.2-7.2,1
	s-5,12.2-7.2,13.8s-5-2.8-7.2-3.4s-5,1.8-7.2-1s-5-17.7-7.2-17.7s-5,15.7-7.2,17.7s-5-4.3-7.2-4.4s-5,2.9-7.2,3.4s-5-0.3-7.2,0.5
	s-5,4.4-7.2,4.9s-5-1-7.2-1.5s-5-1.6-7.2-2s-5-0.2-7.2-0.5s-5-2.4-7.2-1.5s-5,7.9-7.2,7.4s-5-9.9-7.2-10.8s-5,4.5-7.2,4.9
	s-5-1.2-7.2-2s-5-3-7.2-3s-5,2.6-7.2,3.4s-5,3.1-7.2,2.5s-5-6.1-7.2-6.9s-5,0.8-7.2,1.5s-5,3.4-7.2,3s-5-5.8-7.2-5.9s-5,5.3-7.2,5.4
	s-5-4.8-7.2-4.4s-5,5.9-7.2,6.9s-5-0.1-7.2,0s-5,0.5-7.2,0.5s-5-0.3-7.2-0.5c-2.2-0.1-5-0.7-7.2-0.5s-5,1.9-7.2,2s-5-1.2-7.2-1.5
	s-5-0.5-7.2-0.5s-5,0.6-7.2,0.5s-5-1.2-7.2-1s-5,2.5-7.2,2.5s-5-2.2-7.2-2.5s-5,0.8-7.2,1s-5,0-7.2,0s-5-0.3-7.2,0s-5,2.3-7.2,2
	s-5-4.2-7.2-4.4s-5,2.6-7.2,3s-5-0.6-7.2-0.5s-5,0.9-7.2,1s-5-0.6-7.2-0.5s-5,1.3-7.2,1.5s-5-0.3-7.2-0.5s-5-0.9-7.2-1
	s-5,0.4-7.2,0.5s-5,0.1-7.2,0s-5-0.8-7.2-1s-5-0.3-7.2,0s-5,1.7-7.2,2s-5-0.1-7.2-0.5s-5-1.7-7.2-2c-2.2-0.3-5,0-7.2,0
	c-2.2,0-5-0.2-7.2,0s-5,1.2-7.2,1.5c-2.2,0.3-5,0.6-7.2,0.5c-2.2-0.1-5-1.2-7.2-1C36.2,236.7,33.8,237.5,30,239z"/>
<path class="st3" d="M30,239c3.8-1.5,6.2-2.4,7.2-2.5c2.2-0.2,5,0.9,7.2,1c2.2,0.1,5-0.2,7.2-0.5c2.2-0.3,5-1.3,7.2-1.5s5,0,7.2,0
	c2.2,0,5-0.3,7.2,0c2.2,0.3,5,1.6,7.2,2s5,0.7,7.2,0.5s5-1.7,7.2-2s5-0.1,7.2,0s5,0.8,7.2,1s5,0.4,7.2,0s5-2.5,7.2-2.5s5,2.6,7.2,3
	s5-0.2,7.2-0.5s5-1.2,7.2-1.5s5-0.3,7.2-0.5s5-0.9,7.2-1s5,0.6,7.2,0.5s5-0.9,7.2-1s5,0.3,7.2,0.5s5,0.7,7.2,1s5,1.3,7.2,1
	s5-2.7,7.2-3s5,0.5,7.2,1s5,2.6,7.2,2.5s5-3.1,7.2-3.4s5,0.8,7.2,1s5,0.3,7.2,0.5s5,0,7.2,0.5s5,2.5,7.2,2.5s5-2.4,7.2-3
	s5-0.2,7.2-0.5c2.2-0.3,5-1.6,7.2-1.5s5,2.8,7.2,2.5s5-2.6,7.2-4.9s5-9.9,7.2-10.8s5,4.1,7.2,4.4s5-2.7,7.2-2.5s5,3.5,7.2,3.9
	s5-0.9,7.2-1s5,0.1,7.2,0.5s5,1.3,7.2,2s5,3.6,7.2,2.5s5-10.1,7.2-10.3s5,8,7.2,8.9s5-2.5,7.2-3s5,0.7,7.2,0s5-3.8,7.2-4.9
	s5-1.3,7.2-2.5s5-5.9,7.2-5.4s5,7.9,7.2,8.4s5-3.2,7.2-4.9s5-6,7.2-6.4s5,3.4,7.2,3.9s5-1.4,7.2-0.5s5,6.1,7.2,6.4s5,5.7,7.2-4.4
	s5-64.2,7.2-63s5,61.1,7.2,70.9s5-3.3,7.2-5.9s5-7.7,7.2-11.3s5-12.5,7.2-12.8s5,8.8,7.2,10.8s5,1.7,7.2,3s5,6.9,7.2,5.4
	s5-9.4,7.2-15.3c2.2-5.8,5-19.6,7.2-23.6s5,1.1,7.2-3s5-19.2,7.2-24.1c2.2-4.9,5-10,7.2-8.9c2.2,1.2,5,14.7,7.2,16.7s5,7.4,7.2-3
	s5-62.5,7.2-66s5,33.3,7.2,42.8s5,21.3,7.2,20.7s5-18,7.2-25.1c2.2-7.1,5-6.7,7.2-22.1s5-77.3,7.2-80.7s5,48.3,7.2,58.1
	s5,9.1,7.2,7.4s5-17.4,7.2-18.7s5,9.8,7.2,9.8s5-9,7.2-9.8c2.2-0.9,5,2.5,7.2,3.9s5,3.6,7.2,5.9s5,13.9,7.2,9.4s5-43.7,7.2-39.9
	s5,56.4,7.2,65.5s5-5.4,7.2-4.9s5,1.2,7.2,8.4s5,36,7.2,39.4s5-13,7.2-16.7s5-6,7.2-7.9c2.2-1.9,5-2.7,7.2-4.9s5-9.9,7.2-9.8
	s5,9.7,7.2,10.3s5-7.1,7.2-6.4s5,6.8,7.2,10.8c2.2,4.1,5,15.8,7.2,16.2s5-8.2,7.2-13.3c2.2-5.1,5-18.3,7.2-20.7s5,2.9,7.2,4.9
	s5,12,7.2,8.9c2.2-3.1,5-26.9,7.2-29.5s5,7.4,7.2,12.3s5,17.6,7.2,20.7c2.2,3,5-2.6,7.2-0.5s5,11.7,7.2,14.8c2.2,3.1,5,5.8,7.2,5.9
	s5-2.9,7.2-4.9s5-5.3,7.2-8.4s5-14.3,7.2-12.3s5,21.6,7.2,25.6s5,4.5,7.2,1s5-18.9,7.2-24.6c2.2-5.7,5-14.8,7.2-13.3
	s5,16.6,7.2,23.1s5,17.7,7.2,20.2s5,0.2,7.2-3.9s5-23.3,7.2-23.6s5,16.9,7.2,21.7s5,11.5,7.2,9.8s5-19,7.2-20.7s5,6.2,7.2,9.4
	s5,10.2,7.2,11.8s5-0.1,7.2-1s5-7.4,7.2-4.9s5,24.2,7.2,21.7s5-35.9,7.2-38.4s5,21,7.2,21.7s5-12.2,7.2-17.2s5-19.5,7.2-16.2
	c2.2,3.2,5,37.2,7.2,37.9s5-26.7,7.2-33.5c2.2-6.7,5-16.3,7.2-11.3s5,42.1,7.2,44.8s5-24.9,7.2-27.1c2.2-2.2,5,9.4,7.2,12.3
	s5,6.1,7.2,7.4c2.2,1.3,5,5.5,7.2,1.5s5-22.1,7.2-28.1c2.2-6,5-17.7,7.2-11.8s5,46.3,7.2,51.2s5-16.7,7.2-18.7s5,8.4,7.2,5.4
	s5-25.6,7.2-25.1s5,26.8,7.2,28.5s5-17.6,7.2-17.2s5,19.1,7.2,19.7s5-17.6,7.2-15.7s5,27,7.2,28.1s5-19.9,7.2-21.2s5,11.6,7.2,12.8
	s5-5.9,7.2-4.9s5,11.1,7.2,11.3s5-11,7.2-9.8s5,19.5,7.2,17.7s5-25.8,7.2-29.5s5,2.5,7.2,4.4s5,6.4,7.2,8.4s5,6.9,7.2,4.4
	s5-17.8,7.2-21.2c2.2-3.3,5,0.9,7.2-1s5-7.3,7.2-11.3s5-16.1,7.2-15.3s5,16.6,7.2,20.7c2.2,4.1,5,3.4,7.2,6.4s5,13,7.2,13.3
	s5-9.3,7.2-11.3s5-7.3,7.2-2.5s5,34,7.2,34.5s5-28,7.2-31.5c1-1.5,3.3,1.2,7.2,8.4v8.9c-3.8-10.5-6.2-15.2-7.2-14.3
	c-2.2,2.1-5,29-7.2,28.5s-5-27.1-7.2-31.5s-5,0.2-7.2,2.5s-5,11.4-7.2,12.3s-5-3.9-7.2-6.4s-5-6.6-7.2-10.3
	c-2.2-3.8-5-13.1-7.2-14.8s-5-0.4-7.2,3.4s-5,16.8-7.2,22.1s-5,10.9-7.2,13.8s-5,5.9-7.2,5.4s-5-7.2-7.2-8.4s-5,1.1-7.2,0.5
	s-5-7.5-7.2-4.4s-5,24.3-7.2,24.6s-5-20.1-7.2-22.6s-5,4.8-7.2,5.9s-5,2.4-7.2,1.5s-5-6.1-7.2-7.9s-5-5.9-7.2-3.9s-5,19.6-7.2,17.2
	s-5-30.7-7.2-33s-5,18.2-7.2,17.7s-5-20.6-7.2-20.7c-2.2-0.1-5,18.5-7.2,20.2s-5-10.3-7.2-8.9s-5,18.4-7.2,18.2s-5-19.7-7.2-19.2
	s-5,26-7.2,22.6s-5-41.4-7.2-45.3c-2.2-3.8-5,13.6-7.2,19.7s-5,19.2-7.2,21.2s-5-6.6-7.2-8.4c-2.2-1.8-5,0-7.2-3.4s-5-20.7-7.2-19.2
	c-2.2,1.5-5,27.7-7.2,29s-5-17.5-7.2-20.2s-5-1.7-7.2,2.5s-5,27.9-7.2,25.6s-5-38-7.2-40.9c-2.2-2.8-5,16.5-7.2,22.1s-5,17-7.2,15.3
	s-5-27.6-7.2-26.6c-2.2,1-5,31.8-7.2,33.5s-5-19.5-7.2-22.6s-5-0.2-7.2,2s-5,13.7-7.2,12.8s-5-14.3-7.2-18.7s-5-12.9-7.2-10.3
	s-5,24.9-7.2,27.6s-5-5.1-7.2-9.8s-5-22.1-7.2-21.7c-2.2,0.4-5,20.2-7.2,24.6s-5,8.2-7.2,4.9s-5-21.6-7.2-27.1s-5-7.7-7.2-9.4
	c-2.2-1.6-5-7-7.2-1.5s-5,34.3-7.2,38.4s-5-5.1-7.2-10.8s-5-26.6-7.2-27.6s-5,16.3-7.2,21.2s-5,9.5-7.2,11.3s-5,2-7.2,1
	s-5-6.1-7.2-7.9s-5-5-7.2-3.9s-5,12.3-7.2,11.3s-5-13.7-7.2-17.7c-2.2-4.1-5-9.1-7.2-9.4s-5,7.4-7.2,7.9s-5-3.1-7.2-4.9
	c-2.2-1.8-5-8.5-7.2-6.9c-2.2,1.6-5,13.4-7.2,17.7s-5,11.8-7.2,11.3s-5-10.4-7.2-14.3s-5-13.1-7.2-11.8s-5,18.4-7.2,20.2
	s-5-9.2-7.2-8.4s-5,12.2-7.2,13.8s-5-3-7.2-3s-5,0.3-7.2,3s-5,15.5-7.2,14.8s-5-14.4-7.2-19.7s-5-15-7.2-15.3s-5,17.3-7.2,13.8
	s-5-35.3-7.2-36.9s-5,24.5-7.2,26.1s-5-12.7-7.2-15.3c-2.2-2.6-5-2.4-7.2-2s-5,5.7-7.2,4.9c-2.2-0.7-5-7.5-7.2-9.8s-5-8.4-7.2-5.9
	s-5,18.1-7.2,22.6s-5,8.8-7.2,7.4c-2.2-1.4-5-19.8-7.2-16.7c-2.2,3.1-5,32.2-7.2,37.4s-5-3.5-7.2-2.5s-5,7.2-7.2,9.4s-5,6.6-7.2,4.9
	s-5-16.8-7.2-16.2s-5,16.4-7.2,19.7s-5,3.1-7.2,2s-5-6.9-7.2-9.8s-5-16.6-7.2-9.8c-2.2,6.7-5,48.5-7.2,54.6s-5-11.6-7.2-13.8
	s-5-2.8-7.2-1s-5,10.3-7.2,13.3s-5,7.1-7.2,6.4s-5-8-7.2-10.8s-5-10.2-7.2-7.9s-5,20.4-7.2,23.6s-5-2.5-7.2-2.5s-5,8-7.2,3
	s-5-35.8-7.2-36.4s-5,27.5-7.2,32.5s-5,0.6-7.2,0.5s-5-1.8-7.2-1.5s-5,2.5-7.2,3.4s-5,2.7-7.2,3s-5-1.3-7.2-1.5s-5,0.5-7.2,0
	s-5-3.3-7.2-3.4s-5,1.6-7.2,2.5s-5,3.7-7.2,3.4s-5-5.1-7.2-4.9s-5,5.2-7.2,5.9s-5-0.2-7.2-1s-5-3.7-7.2-3.9s-5,1.6-7.2,2.5
	s-5,3.7-7.2,3.4s-5-4.1-7.2-4.9s-5-1.2-7.2-0.5s-5,5.2-7.2,4.9s-5-6.5-7.2-6.9s-5,4.4-7.2,4.4s-5-4.9-7.2-4.4s-5,6.5-7.2,7.9
	s-5,0.9-7.2,1s-5-0.5-7.2-0.5s-5,0.5-7.2,0.5c-2.2,0-5-0.7-7.2-0.5s-5,1.9-7.2,2s-5-1.2-7.2-1.5s-5-0.5-7.2-0.5s-5,0.6-7.2,0.5
	s-5-1.2-7.2-1s-5,2.5-7.2,2.5s-5-2.2-7.2-2.5s-5,0.8-7.2,1s-5,0-7.2,0s-5-0.3-7.2,0s-5,2.3-7.2,2s-5-4.2-7.2-4.4s-5,2.6-7.2,3
	s-5-0.6-7.2-0.5s-5,0.9-7.2,1s-5-0.6-7.2-0.5s-5,1.3-7.2,1.5s-5-0.3-7.2-0.5s-5-0.9-7.2-1s-5,0.4-7.2,0.5s-5,0.1-7.2,0s-5-0.8-7.2-1
	s-5-0.3-7.2,0s-5,1.7-7.2,2s-5-0.1-7.2-0.5s-5-1.7-7.2-2c-2.2-0.3-5,0-7.2,0c-2.2,0-5-0.2-7.2,0s-5,1.2-7.2,1.5
	c-2.2,0.3-5,0.6-7.2,0.5c-2.2-0.1-5-1.2-7.2-1C36.2,236.7,33.8,237.5,30,239z"/>
<g transform="translate(129.20011958710975,0)">
	<line class="st6" x1="30" y1="470" x2="30" y2="476"/>
	<text transform="matrix(1 0 0 1 16.6523 487.52)" class="st7 st8">1860</text>
</g>
<g transform="translate(272.76672646022155,0)">
	<line class="st6" x1="30" y1="470" x2="30" y2="476"/>
	<text transform="matrix(1 0 0 1 16.6523 487.52)" class="st7 st8">1880</text>
</g>
<g transform="translate(416.3333333333333,0)">
	<line class="st6" x1="30" y1="470" x2="30" y2="476"/>
	<text transform="matrix(1 0 0 1 16.6523 487.52)" class="st7 st8">1900</text>
</g>
<g transform="translate(559.8802870090635,0)">
	<line class="st6" x1="30" y1="470" x2="30" y2="476"/>
	<text transform="matrix(1 0 0 1 16.6523 487.52)" class="st7 st8">1920</text>
</g>
<g transform="translate(703.4468938821752,0)">
	<line class="st6" x1="30" y1="470" x2="30" y2="476"/>
	<text transform="matrix(1 0 0 1 16.6523 487.52)" class="st7 st8">1940</text>
</g>
<g transform="translate(847.0135007552869,0)">
	<line class="st6" x1="30" y1="470" x2="30" y2="476"/>
	<text transform="matrix(1 0 0 1 16.6523 487.52)" class="st7 st8">1960</text>
</g>
<g transform="translate(990.5801076283988,0)">
	<line class="st6" x1="30" y1="470" x2="30" y2="476"/>
	<text transform="matrix(1 0 0 1 16.6523 487.52)" class="st7 st8">1980</text>
</g>
<g transform="translate(1134.1467145015106,0)">
	<line class="st6" x1="30" y1="470" x2="30" y2="476"/>
	<text transform="matrix(1 0 0 1 16.6523 487.52)" class="st7 st8">2000</text>
</g>
<path d="M30,476v-6h1249v6"/>
<g transform="translate(1249, 0)">
	<g transform="translate(0,440)">
		<line class="st6" x1="30" y1="20" x2="36" y2="20"/>
		<text transform="matrix(1 0 0 1 39 23.84)" class="st7 st8">0</text>
	</g>
	<g transform="translate(0,390.78299776286354)">
		<line class="st6" x1="30" y1="20" x2="36" y2="20"/>
		<text transform="matrix(1 0 0 1 39 23.84)" class="st7 st8">50</text>
	</g>
	<g transform="translate(0,341.5659955257271)">
		<line class="st6" x1="30" y1="20" x2="36" y2="20"/>
		<text transform="matrix(1 0 0 1 39 23.84)" class="st7 st8">100</text>
	</g>
	<g transform="translate(0,292.3489932885906)">
		<line class="st6" x1="30" y1="20" x2="36" y2="20"/>
		<text transform="matrix(1 0 0 1 39 23.84)" class="st7 st8">150</text>
	</g>
	<g transform="translate(0,243.13199105145415)">
		<line class="st6" x1="30" y1="20" x2="36" y2="20"/>
		<text transform="matrix(1 0 0 1 39 23.84)" class="st7 st8">200</text>
	</g>
	<g transform="translate(0,193.91498881431767)">
		<line class="st6" x1="30" y1="20" x2="36" y2="20"/>
		<text transform="matrix(1 0 0 1 39 23.84)" class="st7 st8">250</text>
	</g>
	<g transform="translate(0,144.6979865771812)">
		<line class="st6" x1="30" y1="20" x2="36" y2="20"/>
		<text transform="matrix(1 0 0 1 39 23.84)" class="st7 st8">300</text>
	</g>
	<g transform="translate(0,95.48098434004476)">
		<line class="st6" x1="30" y1="20" x2="36" y2="20"/>
		<text transform="matrix(1 0 0 1 39 23.84)" class="st7 st8">350</text>
	</g>
	<g transform="translate(0,46.2639821029083)">
		<line class="st6" x1="30" y1="20" x2="36" y2="20"/>
		<text transform="matrix(1 0 0 1 39 23.84)" class="st7 st8">400</text>
	</g>
	<path d="M36,20h-6v440h6"/>
</g>
<g>
	<g transform="translate(0,440)">
		<line class="st6" x1="30" y1="20" x2="24" y2="20"/>
		<text transform="matrix(1 0 0 1 14.3262 23.84)" class="st7 st8">0</text>
	</g>
	<g transform="translate(0,390.78299776286354)">
		<line class="st6" x1="30" y1="20" x2="24" y2="20"/>
		<text transform="matrix(1 0 0 1 7.6523 23.84)" class="st7 st8">50</text>
	</g>
	<g transform="translate(0,341.5659955257271)">
		<line class="st6" x1="30" y1="20" x2="24" y2="20"/>
		<text transform="matrix(1 0 0 1 0.9785 23.84)" class="st7 st8">100</text>
	</g>
	<g transform="translate(0,292.3489932885906)">
		<line class="st6" x1="30" y1="20" x2="24" y2="20"/>
		<text transform="matrix(1 0 0 1 0.9785 23.84)" class="st7 st8">150</text>
	</g>
	<g transform="translate(0,243.13199105145415)">
		<line class="st6" x1="30" y1="20" x2="24" y2="20"/>
		<text transform="matrix(1 0 0 1 0.9785 23.84)" class="st7 st8">200</text>
	</g>
	<g transform="translate(0,193.91498881431767)">
		<line class="st6" x1="30" y1="20" x2="24" y2="20"/>
		<text transform="matrix(1 0 0 1 0.9785 23.84)" class="st7 st8">250</text>
	</g>
	<g transform="translate(0,144.6979865771812)">
		<line class="st6" x1="30" y1="20" x2="24" y2="20"/>
		<text transform="matrix(1 0 0 1 0.9785 23.84)" class="st7 st8">300</text>
	</g>
	<g transform="translate(0,95.48098434004476)">
		<line class="st6" x1="30" y1="20" x2="24" y2="20"/>
		<text transform="matrix(1 0 0 1 0.9785 23.84)" class="st7 st8">350</text>
	</g>
	<g transform="translate(0,46.2639821029083)">
		<line class="st6" x1="30" y1="20" x2="24" y2="20"/>
		<text transform="matrix(1 0 0 1 0.9785 23.84)" class="st7 st8">400</text>
	</g>
	<path d="M24,20h6v440h-6"/>
</g>
<g>
	<g>
		<line class="st9" x1="159.2" y1="470" x2="159.2" y2="470"/>
		<line class="st10" x1="159.2" y1="465" x2="159.2" y2="29.5"/>
		<line class="st9" x1="159.2" y1="27" x2="159.2" y2="27"/>
	</g>
</g>
<g>
	<g>
		<line class="st9" x1="302.8" y1="470" x2="302.8" y2="470"/>
		<line class="st10" x1="302.8" y1="465" x2="302.8" y2="29.5"/>
		<line class="st9" x1="302.8" y1="27" x2="302.8" y2="27"/>
	</g>
</g>
<g>
	<g>
		<line class="st9" x1="446.3" y1="470" x2="446.3" y2="470"/>
		<line class="st10" x1="446.3" y1="465" x2="446.3" y2="29.5"/>
		<line class="st9" x1="446.3" y1="27" x2="446.3" y2="27"/>
	</g>
</g>
<g>
	<g>
		<line class="st9" x1="589.9" y1="470" x2="589.9" y2="470"/>
		<line class="st10" x1="589.9" y1="465" x2="589.9" y2="29.5"/>
		<line class="st9" x1="589.9" y1="27" x2="589.9" y2="27"/>
	</g>
</g>
<g>
	<g>
		<line class="st9" x1="733.5" y1="470" x2="733.5" y2="470"/>
		<line class="st10" x1="733.5" y1="465" x2="733.5" y2="29.5"/>
		<line class="st9" x1="733.5" y1="27" x2="733.5" y2="27"/>
	</g>
</g>
<g>
	<g>
		<line class="st9" x1="877" y1="470" x2="877" y2="470"/>
		<line class="st10" x1="877" y1="465" x2="877" y2="29.5"/>
		<line class="st9" x1="877" y1="27" x2="877" y2="27"/>
	</g>
</g>
<g>
	<g>
		<line class="st9" x1="1020.6" y1="470" x2="1020.6" y2="470"/>
		<line class="st10" x1="1020.6" y1="465" x2="1020.6" y2="29.5"/>
		<line class="st9" x1="1020.6" y1="27" x2="1020.6" y2="27"/>
	</g>
</g>
<g>
	<g>
		<line class="st9" x1="1164.2" y1="470" x2="1164.2" y2="470"/>
		<line class="st10" x1="1164.2" y1="465" x2="1164.2" y2="29.5"/>
		<line class="st9" x1="1164.2" y1="27" x2="1164.2" y2="27"/>
	</g>
</g>
</svg>
